<?xml version="1.0" standalone="yes"?>
<svg xmlns="http://www.w3.org/2000/svg" width="1269" height="609">
<path style="fill:#ffffff; stroke:none;" d="M0 0L0 609L1269 609L1269 0L0 0z"/>
<path style="fill:#fec8a4; stroke:none;" d="M398 28L399 29L398 28z"/>
<path style="fill:#fe6703; stroke:none;" d="M399.044 28.7462C389.763 32.3902 395.988 45.7751 404.956 42.2538C414.237 38.6097 408.012 25.2249 399.044 28.7462z"/>
<path style="fill:#fec8a4; stroke:none;" d="M405 28L406 29L405 28M394 32L395 33L394 32M409 32L410 33L409 32M371 38L372 39L371 38z"/>
<path style="fill:#fe6703; stroke:none;" d="M372.044 38.7462C362.763 42.3902 368.988 55.7751 377.956 52.2538C387.237 48.6097 381.012 35.2249 372.044 38.7462z"/>
<path style="fill:#fec8a4; stroke:none;" d="M378 38L379 39L378 38M394 38L395 39L394 38M409 38L410 39L409 38M367 42L368 43L367 42M382 42L383 43L382 42M398 42L399 43L398 42M405 42L406 43L405 42M343 46L344 47L343 46z"/>
<path style="fill:#fe6703; stroke:none;" d="M344.044 46.7462C334.763 50.3903 340.988 63.7751 349.956 60.2538C359.237 56.6097 353.012 43.2249 344.044 46.7462z"/>
<path style="fill:#fec8a4; stroke:none;" d="M350 46L351 47L350 46M367 48L368 49L367 48M382 48L383 49L382 48M339 50L340 51L339 50M354 50L355 51L354 50M371 52L372 53L371 52M378 52L379 53L378 52M316 54L317 55L316 54z"/>
<path style="fill:#fe6703; stroke:none;" d="M319 69C318.2 70.6727 317.379 72.1135 317.312 74.0239C316.705 91.1567 345.895 73.931 326 67C326.8 65.3275 327.621 63.8863 327.688 61.9761C328.295 44.8433 299.105 62.069 319 69z"/>
<path style="fill:#fec8a4; stroke:none;" d="M323 54L324 55L323 54M339 56L340 57L339 56M354 56L355 57L354 56M312 58L313 59L312 58M327 58L328 59L327 58M343 60L344 61L343 60M350 60L351 61L350 60M290 62L291 63L290 62z"/>
<path style="fill:#fe6703; stroke:none;" d="M296 77L296 78C284.342 82.7641 290.225 97.6232 301.999 95.7716C317.413 93.3477 309.364 77.1118 297 77C303.567 71.3698 301.523 58.6316 291.044 62.7462C281.045 66.6722 288.374 76.5823 296 77z"/>
<path style="fill:#fec8a4; stroke:none;" d="M297 62L298 63L297 62M312 64L313 65L312 64M327 64L328 65L327 64M286 66L287 67L286 66M301 66L302 67L301 66M328 67L329 68L328 67M316 68L317 69L316 68M263 71L264 72L263 71z"/>
<path style="fill:#fe6703; stroke:none;" d="M264.044 71.7462C254.763 75.3902 260.988 88.7751 269.956 85.2538C279.237 81.6097 273.012 68.2249 264.044 71.7462z"/>
<path style="fill:#fec8a4; stroke:none;" d="M270 71L271 72L270 71M317 71L318 72L317 71M332 71L333 72L332 71M286 72L287 73L286 72M301 72L302 73L301 72M259 75L260 76L259 75M274 75L275 76L274 75M290 76L291 77L290 76M297 76L298 77L297 76M317 77L318 78L317 77M332 77L333 78L332 77M293 78L294 79L293 78M306 78L307 79L306 78M238 79L239 80L238 79z"/>
<path style="fill:#fe6703; stroke:none;" d="M239.044 79.7462C229.763 83.3902 235.988 96.7751 244.956 93.2538C254.237 89.6097 248.012 76.2249 239.044 79.7462z"/>
<path style="fill:#fec8a4; stroke:none;" d="M245 79L246 80L245 79M292 79L293 80L292 79M307 79L308 80L307 79M259 81L260 82L259 81M274 81L275 82L274 81M290 81L291 82L290 81M309 81L310 82L309 81M321 81L322 82L321 81M328 81L329 82L328 81M234 83L235 84L234 83M249 83L250 84L249 83M289 83L290 84L289 83z"/>
<path style="fill:#f6b088; stroke:none;" d="M310 83L311 84L310 83z"/>
<path style="fill:#fec8a4; stroke:none;" d="M263 85L264 86L263 85M270 85L271 86L270 85M213 86L214 87L213 86z"/>
<path style="fill:#fe6703; stroke:none;" d="M214.044 86.7462C204.763 90.3902 210.988 103.775 219.956 100.254C229.237 96.6099 223.012 83.2249 214.044 86.7462z"/>
<path style="fill:#fec8a4; stroke:none;" d="M220 86L221 87L220 86M234 89L235 90L234 89M249 89L250 90L249 89M289 89L290 90L289 89M310 89L311 90L310 89M209 90L210 91L209 90M224 90L225 91L224 90M266 90L267 91L266 90z"/>
<path style="fill:#fe6703; stroke:none;" d="M267 90.5587C250.248 94.8789 257.493 119.698 274 115.441C290.752 111.121 283.507 86.3015 267 90.5587z"/>
<path style="fill:#fec8a4; stroke:none;" d="M274 90L275 91L274 90M290 91L291 92L290 91M309 91L310 92L309 91M262 92L263 93L262 92M278 92L279 93L278 92M238 93L239 94L238 93M245 93L246 94L245 93M292 93L293 94L292 93M307 93L308 94L307 93M293 94L294 95L293 94M306 94L307 95L306 94M188 95L189 96L188 95z"/>
<path style="fill:#fe6703; stroke:none;" d="M189.044 95.7462C179.763 99.3902 185.988 112.775 194.956 109.254C204.237 105.61 198.012 92.2249 189.044 95.7462z"/>
<path style="fill:#fec8a4; stroke:none;" d="M195 95L196 96L195 95M209 96L210 97L209 96M224 96L225 97L224 96M258 96L259 97L258 96M282 96L283 97L282 96M184 99L185 100L184 99M199 99L200 100L199 99z"/>
<path style="fill:#f6b088; stroke:none;" d="M257 99L258 100L257 99M283 99L284 100L283 99z"/>
<path style="fill:#fec8a4; stroke:none;" d="M213 100L214 101L213 100M220 100L221 101L220 100M162 104L163 105L162 104z"/>
<path style="fill:#fe6703; stroke:none;" d="M163.044 104.746C153.763 108.39 159.988 121.775 168.956 118.254C178.237 114.61 172.012 101.225 163.044 104.746z"/>
<path style="fill:#fec8a4; stroke:none;" d="M169 104L170 105L169 104M184 105L185 106L184 105M199 105L200 106L199 105z"/>
<path style="fill:#f6b088; stroke:none;" d="M257 106L258 107L257 106M283 106L284 107L283 106z"/>
<path style="fill:#fec8a4; stroke:none;" d="M158 108L159 109L158 108M173 108L174 109L173 108M188 109L189 110L188 109M195 109L196 110L195 109M258 109L259 110L258 109M282 109L283 110L282 109M230 110L231 111L230 110z"/>
<path style="fill:#fe6703; stroke:none;" d="M231 110.534C211.593 115.156 218.813 145.036 238 140.466C257.407 135.844 250.187 105.964 231 110.534z"/>
<path style="fill:#f6b088; stroke:none;" d="M238 110L239 111L238 110z"/>
<path style="fill:#fec8a4; stroke:none;" d="M227 111L228 112L227 111M241 111L242 112L241 111M139 112L140 113L139 112z"/>
<path style="fill:#fe6703; stroke:none;" d="M140.044 112.746C130.763 116.39 136.988 129.775 145.956 126.254C155.237 122.61 149.012 109.225 140.044 112.746z"/>
<path style="fill:#fec8a4; stroke:none;" d="M146 112L147 113L146 112M225 112L226 113L225 112M243 112L244 113L243 112M224 113L225 114L224 113M244 113L245 114L244 113M262 113L263 114L262 113M278 113L279 114L278 113M158 114L159 115L158 114M173 114L174 115L173 114M223 114L224 115L223 114M245 114L246 115L245 114M222 115L223 116L222 115M246 115L247 116L246 115M266 115L267 116L266 115M274 115L275 116L274 115M135 116L136 117L135 116M150 116L151 117L150 116M221 116L222 117L221 116M247 116L248 117L247 116M162 118L163 119L162 118M169 118L170 119L169 118M220 118L221 119L220 118M248 118L249 119L248 118M115 120L116 121L115 120z"/>
<path style="fill:#fe6703; stroke:none;" d="M116.044 120.746C106.763 124.39 112.988 137.775 121.956 134.254C131.237 130.61 125.012 117.225 116.044 120.746z"/>
<path style="fill:#fec8a4; stroke:none;" d="M122 120L123 121L122 120M219 121L220 122L219 121z"/>
<path style="fill:#f6b088; stroke:none;" d="M249 121L250 122L249 121z"/>
<path style="fill:#fec8a4; stroke:none;" d="M135 122L136 123L135 122M150 122L151 123L150 122M111 124L112 125L111 124M126 124L127 125L126 124M139 126L140 127L139 126M146 126L147 127L146 126M90 127L91 128L90 127z"/>
<path style="fill:#fe6703; stroke:none;" d="M91.044 127.746C81.7633 131.39 87.9881 144.775 96.956 141.254C106.237 137.61 100.012 124.225 91.044 127.746z"/>
<path style="fill:#fec8a4; stroke:none;" d="M97 127L98 128L97 127z"/>
<path style="fill:#f6b088; stroke:none;" d="M219 129L220 130L219 129z"/>
<path style="fill:#fec8a4; stroke:none;" d="M249 129L250 130L249 129M111 130L112 131L111 130M126 130L127 131L126 130M86 131L87 132L86 131M101 131L102 132L101 131M220 132L221 133L220 132M248 132L249 133L248 132M67 134L68 135L67 134z"/>
<path style="fill:#fe6703; stroke:none;" d="M68.044 134.746C58.7633 138.39 64.9881 151.775 73.956 148.254C83.2366 144.61 77.0119 131.225 68.044 134.746z"/>
<path style="fill:#fec8a4; stroke:none;" d="M74 134L75 135L74 134M115 134L116 135L115 134M122 134L123 135L122 134M221 134L222 135L221 134M247 134L248 135L247 134z"/>
<path style="fill:#f6b088; stroke:none;" d="M192 135L193 136L192 135z"/>
<path style="fill:#fe6703; stroke:none;" d="M193 135.529C170.28 140.745 178.755 174.577 201 169.471C223.72 164.255 215.245 130.423 193 135.529z"/>
<path style="fill:#f6b088; stroke:none;" d="M201 135L202 136L201 135z"/>
<path style="fill:#fec8a4; stroke:none;" d="M222 135L223 136L222 135M246 135L247 136L246 135M189 136L190 137L189 136M204 136L205 137L204 136M223 136L224 137L223 136M245 136L246 137L245 136M86 137L87 138L86 137M101 137L102 138L101 137M187 137L188 138L187 137M206 137L207 138L206 137M224 137L225 138L224 137M244 137L245 138L244 137M63 138L64 139L63 138M78 138L79 139L78 138M225 138L226 139L225 138M243 138L244 139L243 138M184 139L185 140L184 139M209 139L210 140L209 139M227 139L228 140L227 139M241 139L242 140L241 139M183 140L184 141L183 140M210 140L211 141L210 140M230 140L231 141L230 140M238 140L239 141L238 140M90 141L91 142L90 141M97 141L98 142L97 141M181 143L182 144L181 143M212 143L213 144L212 143M63 144L64 145L63 144M78 144L79 145L78 144z"/>
<path style="fill:#f6b088; stroke:none;" d="M180 145L181 146L180 145M213 145L214 146L213 145z"/>
<path style="fill:#fec8a4; stroke:none;" d="M179 147L180 148L179 147M214 147L215 148L214 147M67 148L68 149L67 148M74 148L75 149L74 148M179 157L180 158L179 157M214 157L215 158L214 157z"/>
<path style="fill:#f6b088; stroke:none;" d="M180 159L181 160L180 159M213 159L214 160L213 159z"/>
<path style="fill:#fec8a4; stroke:none;" d="M181 161L182 162L181 161M212 161L213 162L212 161M183 164L184 165L183 164M210 164L211 165L210 164M184 165L185 166L184 165M209 165L210 166L209 165M154 166L155 167L154 166z"/>
<path style="fill:#fe6703; stroke:none;" d="M155 166.529C128.38 172.681 138.616 213.568 165 207.471C191.62 201.319 181.384 160.432 155 166.529z"/>
<path style="fill:#fec8a4; stroke:none;" d="M165 166L166 167L165 166M187 167L188 168L187 167M206 167L207 168L206 167M149 168L150 169L149 168M170 168L171 169L170 168M189 168L190 169L189 168M204 168L205 169L204 168z"/>
<path style="fill:#f6b088; stroke:none;" d="M192 169L193 170L192 169z"/>
<path style="fill:#fec8a4; stroke:none;" d="M201 169L202 170L201 169M146 170L147 171L146 170M173 170L174 171L173 170M145 171L146 172L145 171M174 171L175 172L174 171M144 172L145 173L144 172M175 172L176 173L175 172M143 173L144 174L143 173M176 173L177 174L176 173M141 176L142 177L141 176M178 176L179 177L178 176M140 178L141 179L140 178M179 178L180 179L179 178M139 181L140 182L139 181M180 181L181 182L180 181M139 192L140 193L139 192M180 192L181 193L180 192M140 195L141 196L140 195M179 195L180 196L179 195M141 197L142 198L141 197M178 197L179 198L178 197M144 201L145 202L144 201M175 201L176 202L175 201M145 202L146 203L145 202M174 202L175 203L174 202M146 203L147 204L146 203M173 203L174 204L173 203M149 205L150 206L149 205M170 205L171 206L170 205M151 206L152 207L151 206M168 206L169 207L168 206M117 207L118 208L117 207z"/>
<path style="fill:#fe6703; stroke:none;" d="M118 207.518C87.5748 214.019 97.9292 259.908 128 253.482C158.425 246.981 148.071 201.092 118 207.518z"/>
<path style="fill:#fec8a4; stroke:none;" d="M128 207L129 208L128 207M154 207L155 208L154 207M165 207L166 208L165 207z"/>
<path style="fill:#f6b088; stroke:none;" d="M114 208L115 209L114 208z"/>
<path style="fill:#fec8a4; stroke:none;" d="M131 208L132 209L131 208M108 211L109 212L108 211M137 211L138 212L137 211M107 212L108 213L107 212M138 212L139 213L138 212z"/>
<path style="fill:#afa3c6; stroke:none;" d="M556 212L557 213L556 212z"/>
<path style="fill:#fe6703; stroke:none;" d="M566 399C566.541 394.808 569.93 386.438 566.972 382.742C562.847 377.586 555.33 380.11 552.148 372C548.394 362.43 553.662 347.706 555.6 338C559.127 320.337 562.941 302.742 566.084 285C567.926 274.6 570.8 264.384 572.739 254C574.484 244.658 576.234 235.297 578.211 226C578.917 222.678 581.103 217.69 579.968 214.318C578.541 210.074 559.432 210.867 556.589 213.603C553.597 216.483 553.656 223.155 552.765 227C549.769 239.914 547.772 253.05 544.985 266C538.915 294.206 532.759 322.55 527.921 351C525.855 363.143 522.55 377.165 530.638 387.96C538.975 399.086 553.577 399 566 399z"/>
<path style="fill:#fec8a4; stroke:none;" d="M580 212L581 213L580 212z"/>
<path style="fill:#afa3c6; stroke:none;" d="M580 213L581 214L580 213z"/>
<path style="fill:#fec8a4; stroke:none;" d="M104 215L105 216L104 215M141 215L142 216L141 215z"/>
<path style="fill:#f6b088; stroke:none;" d="M580.333 215.667L580.667 216.333L580.333 215.667z"/>
<path style="fill:#fec8a4; stroke:none;" d="M103 216L104 217L103 216M142 216L143 217L142 216M263 216L264 217L263 216z"/>
<path style="fill:#fe6703; stroke:none;" d="M264 216.558C242.31 222.213 251.676 255.034 273 248.347C292.534 242.222 283.889 211.372 264 216.558z"/>
<path style="fill:#fec8a4; stroke:none;" d="M275 217L276 218L275 217M580 217L581 218L580 217z"/>
<path style="fill:#afa3c6; stroke:none;" d="M259 218L260 219L259 218z"/>
<path style="fill:#f6b088; stroke:none;" d="M276 218L277 219L276 218M554 218L555 219L554 218z"/>
<path style="fill:#fec8a4; stroke:none;" d="M101 219L102 220L101 219M144 219L145 220L144 219M256 220L257 221L256 220z"/>
<path style="fill:#f6b088; stroke:none;" d="M579.333 220.667L579.667 221.333L579.333 220.667z"/>
<path style="fill:#fec8a4; stroke:none;" d="M255 221L256 222L255 221M254 222L255 223L254 222M553 223L554 224L553 223M99 224L100 225L99 224M146 224L147 225L146 224z"/>
<path style="fill:#f6b088; stroke:none;" d="M578.333 224.667L578.667 225.333L578.333 224.667M99 225L100 226L99 225M146 225L147 226L146 225M283 226L284 227L283 226z"/>
<path style="fill:#fec8a4; stroke:none;" d="M578 226L579 227L578 226M284 228L285 229L284 228z"/>
<path style="fill:#afa3c6; stroke:none;" d="M552 228L553 229L552 228z"/>
<path style="fill:#fec8a4; stroke:none;" d="M251 229L252 230L251 229z"/>
<path style="fill:#f6b088; stroke:none;" d="M284.333 229.667L284.667 230.333L284.333 229.667M577.333 229.667L577.667 230.333L577.333 229.667M284 232L284 235L285 235L284 232M576.333 234.667L576.667 235.333L576.333 234.667z"/>
<path style="fill:#fec8a4; stroke:none;" d="M99.3333 235.667L99.6667 236.333L99.3333 235.667M146.333 235.667L146.667 236.333L146.333 235.667z"/>
<path style="fill:#f6b088; stroke:none;" d="M251 236L252 237L251 236z"/>
<path style="fill:#fec8a4; stroke:none;" d="M576 236L577 237L576 236z"/>
<path style="fill:#f6b088; stroke:none;" d="M550 237L551 238L550 237M282 240L283 241L282 240M575 240L576 241L575 240z"/>
<path style="fill:#fec8a4; stroke:none;" d="M101 241L102 242L101 241M144 241L145 242L144 241z"/>
<path style="fill:#afa3c6; stroke:none;" d="M253 241L254 242L253 241z"/>
<path style="fill:#fec8a4; stroke:none;" d="M575 241L576 242L575 241z"/>
<path style="fill:#afa3c6; stroke:none;" d="M254 242L255 243L254 242z"/>
<path style="fill:#fec8a4; stroke:none;" d="M549 242L550 243L549 242z"/>
<path style="fill:#afa3c6; stroke:none;" d="M549 243L550 244L549 243z"/>
<path style="fill:#fec8a4; stroke:none;" d="M103 244L104 245L103 244M142 244L143 245L142 244M279 244L280 245L279 244z"/>
<path style="fill:#f6b088; stroke:none;" d="M574 244L575 245L574 244z"/>
<path style="fill:#fec8a4; stroke:none;" d="M104 245L105 246L104 245M141 245L142 246L141 245M574 245L575 246L574 245M107 248L108 249L107 248M138 248L139 249L138 248z"/>
<path style="fill:#f6b088; stroke:none;" d="M262 248L263 249L262 248z"/>
<path style="fill:#fec8a4; stroke:none;" d="M108 249L109 250L108 249M137 249L138 250L137 249z"/>
<path style="fill:#f6b088; stroke:none;" d="M573 249L574 250L573 249z"/>
<path style="fill:#fec8a4; stroke:none;" d="M114 252L115 253L114 252M131 252L132 253L131 252z"/>
<path style="fill:#afa3c6; stroke:none;" d="M547 252L548 253L547 252z"/>
<path style="fill:#fec8a4; stroke:none;" d="M117 253L118 254L117 253M128 253L129 254L128 253z"/>
<path style="fill:#f6b088; stroke:none;" d="M572 255L573 256L572 255z"/>
<path style="fill:#fec8a4; stroke:none;" d="M546 256L547 257L546 256M572 256L573 257L572 256z"/>
<path style="fill:#f6b088; stroke:none;" d="M571.333 259.667L571.667 260.333L571.333 259.667z"/>
<path style="fill:#fec8a4; stroke:none;" d="M1147 259L1148 260L1147 259z"/>
<path style="fill:#afa3c6; stroke:none;" d="M1148 259L1149 260L1148 259z"/>
<path style="fill:#fe6703; stroke:none;" d="M1171 366C1162.26 367.684 1155.17 373.841 1146 374.826C1118.83 377.745 1107.07 358.406 1109 334C1135.39 336.304 1158.97 342.592 1183 325.946C1204.1 311.333 1210.25 275.129 1183 263.174C1119.61 235.362 1056.62 319.989 1090.61 376C1102.58 395.73 1125.42 397.369 1146 395.05C1151.87 394.389 1164.13 393.571 1168.01 388.49C1171.87 383.441 1171 372.063 1171 366z"/>
<path style="fill:#afa3c6; stroke:none;" d="M1167 259L1168 260L1167 259z"/>
<path style="fill:#fe6703; stroke:none;" d="M876 260.443C838.297 264.918 813.047 296.391 808.289 333C803.667 368.572 820.661 401.669 861 397.83C902.816 393.851 924.291 359.815 929.575 321C934.233 286.781 913.245 256.022 876 260.443z"/>
<path style="fill:#f6b088; stroke:none;" d="M881 260L882 261L881 260z"/>
<path style="fill:#fec8a4; stroke:none;" d="M882 260L882 261L885 261L882 260z"/>
<path style="fill:#afa3c6; stroke:none;" d="M977 260L978 261L977 260z"/>
<path style="fill:#fe6703; stroke:none;" d="M1022 394C1027.37 394 1043.32 396.682 1047.01 392.397C1049.3 389.745 1049.17 384.301 1049.8 381C1051.78 370.701 1053.52 360.344 1055.25 350C1059.84 322.448 1079.14 263.399 1034 260.09C1028.54 259.69 1022.42 259.526 1017 260.3C1003.76 262.192 996.107 269.995 985 276C983.988 272.087 984.09 264.543 981.142 261.643C978.011 258.562 961.388 262.316 959.618 266.303C956.854 272.529 961.593 283.866 960.572 291C957.031 315.724 952.131 340.454 947.54 365C946.549 370.3 939.846 390.175 944.604 393.972C948.808 397.328 965.531 396.285 967.467 390.941C975.365 369.136 975.646 342.741 980.336 320C981.827 312.768 981.303 303.298 985.564 297C995.177 282.792 1028.14 270.714 1035.89 293C1041.08 307.924 1033.36 329.014 1030.75 344C1027.87 360.538 1023.32 377.253 1022 394z"/>
<path style="fill:#fec8a4; stroke:none;" d="M981 260L982 261L981 260z"/>
<path style="fill:#afa3c6; stroke:none;" d="M1037 260L1038 261L1037 260z"/>
<path style="fill:#fec8a4; stroke:none;" d="M1141 260L1142 261L1141 260z"/>
<path style="fill:#afa3c6; stroke:none;" d="M1142 260L1143 261L1142 260M1174 260L1175 261L1174 260z"/>
<path style="fill:#fec8a4; stroke:none;" d="M1175 260L1176 261L1175 260M869 261L870 262L869 261M893 261L894 262L893 261M1041 261L1042 262L1041 261M1137 261L1138 262L1137 261z"/>
<path style="fill:#afa3c6; stroke:none;" d="M1138 261L1139 262L1138 261z"/>
<path style="fill:#fec8a4; stroke:none;" d="M545 262L546 263L545 262M664 262L665 263L664 262z"/>
<path style="fill:#fe6703; stroke:none;" d="M689 368C669.626 376.348 636.974 388.323 628.301 358C626.31 351.039 626.981 344.111 627 337C652.13 339.191 675.762 346.02 699 330.402C719.411 316.684 731.167 280.399 703 267.184C639.419 237.355 574.259 321.929 608.927 379C620.966 398.819 645.097 401.237 666 397.753C671.491 396.838 682.341 396.148 686.062 391.49C689.967 386.601 688.996 374.041 689 368z"/>
<path style="fill:#fec8a4; stroke:none;" d="M687 262L688 263L687 262M863 262L864 263L863 262z"/>
<path style="fill:#afa3c6; stroke:none;" d="M897 262L898 263L897 262z"/>
<path style="fill:#fec8a4; stroke:none;" d="M966 262L967 263L966 262M1007 262L1008 263L1007 262M1133 262L1134 263L1133 262M1181 262L1182 263L1181 262M81 263L82 264L81 263z"/>
<path style="fill:#fe6703; stroke:none;" d="M82 263.468C48.8391 269.732 58.8543 321.794 92 315.532C125.161 309.268 115.146 257.206 82 263.468z"/>
<path style="fill:#fec8a4; stroke:none;" d="M92 263L93 264L92 263z"/>
<path style="fill:#fe6703; stroke:none;" d="M492 369C477.509 372.316 464.95 383.453 449 377.438C415.029 364.624 429.987 313.097 450.001 295.174C459.502 286.664 472.305 282.62 485 284.289C489.369 284.864 497.729 290.076 501.686 288.583C507.369 286.438 507.926 270.321 502.941 267.558C495.854 263.63 485.936 263.098 478 263.004C432.874 262.47 404.016 303.787 404 346C403.995 360.12 405.388 373.901 415.184 384.999C429.022 400.676 449.573 401.754 469 398.999C474.552 398.212 484.556 397.126 488.397 392.581C492.434 387.805 491.875 375.039 492 369z"/>
<path style="fill:#fec8a4; stroke:none;" d="M484.667 263.333L485.333 263.667L484.667 263.333z"/>
<path style="fill:#afa3c6; stroke:none;" d="M545 263L546 264L545 263z"/>
<path style="fill:#fec8a4; stroke:none;" d="M659 263L660 264L659 263M692 263L693 264L692 263M860 263L861 264L860 263M963 263L964 264L963 263z"/>
<path style="fill:#f6b088; stroke:none;" d="M1047 263L1048 264L1047 263z"/>
<path style="fill:#fec8a4; stroke:none;" d="M1131 263L1132 264L1131 263M375 264L376 265L375 264z"/>
<path style="fill:#afa3c6; stroke:none;" d="M376 264L377 265L376 264z"/>
<path style="fill:#fe6703; stroke:none;" d="M345 282C345.285 278.389 348.445 269.725 345.243 267.028C340.719 263.216 324.038 264.985 322.468 271.044C318.218 287.446 315.549 305.231 313.131 322C311.536 333.069 309.312 344.013 307.261 355C305.46 364.646 304.012 374.364 302.196 384C301.547 387.443 299.335 393.289 300.693 396.682C302.437 401.041 321.294 400.277 323.686 396.682C327.907 390.339 327.811 377.465 329.081 370C333.809 342.204 336.932 281.74 378 285.093C383.065 285.507 387.399 288.087 392 290C393.972 284.711 399.857 272.814 397.382 267.314C395.554 263.253 387.594 263.989 384 264.001C368.048 264.052 356.939 272.376 345 282z"/>
<path style="fill:#afa3c6; stroke:none;" d="M392.667 264.333L393.333 264.667L392.667 264.333z"/>
<path style="fill:#fec8a4; stroke:none;" d="M394 264L395 265L394 264M462 264L463 265L462 264M494 264L495 265L494 264z"/>
<path style="fill:#f6b088; stroke:none;" d="M570 264L571 265L570 264z"/>
<path style="fill:#fec8a4; stroke:none;" d="M904 264L905 265L904 264M959 264L960 265L959 264M1002 264L1003 265L1002 264z"/>
<path style="fill:#afa3c6; stroke:none;" d="M1129 264L1130 265L1129 264M1185 264L1186 265L1185 264z"/>
<path style="fill:#fec8a4; stroke:none;" d="M75 265L76 266L75 265M98 265L99 266L98 265z"/>
<path style="fill:#afa3c6; stroke:none;" d="M397 265L398 266L397 265z"/>
<path style="fill:#fec8a4; stroke:none;" d="M458 265L459 266L458 265M497 265L498 266L497 265M570 265L571 266L570 265M698 265L699 266L698 265z"/>
<path style="fill:#afa3c6; stroke:none;" d="M855 265L856 266L855 265z"/>
<path style="fill:#fec8a4; stroke:none;" d="M1050 265L1051 266L1050 265M1127 265L1128 266L1127 265M324 266L325 267L324 266z"/>
<path style="fill:#f6b088; stroke:none;" d="M334.667 266.333L335.333 266.667L334.667 266.333z"/>
<path style="fill:#afa3c6; stroke:none;" d="M368 266L369 267L368 266z"/>
<path style="fill:#fec8a4; stroke:none;" d="M398 266L399 267L398 266M454 266L455 267L454 266z"/>
<path style="fill:#afa3c6; stroke:none;" d="M500 266L501 267L500 266z"/>
<path style="fill:#fec8a4; stroke:none;" d="M649 266L650 267L649 266M701 266L702 267L701 266M852 266L853 267L852 266M908 266L909 267L908 266M998 266L999 267L998 266M1124 266L1125 267L1124 266z"/>
<path style="fill:#f6b088; stroke:none;" d="M72 267L73 268L72 267M101 267L102 268L101 267z"/>
<path style="fill:#fec8a4; stroke:none;" d="M238 267L238 268L243 268L238 267z"/>
<path style="fill:#afa3c6; stroke:none;" d="M243 267L244 268L243 267z"/>
<path style="fill:#fe6703; stroke:none;" d="M249 288C246.914 314.395 240.57 342.054 235.335 368C234.118 374.031 227.485 392.081 231.117 397.397C235.092 403.212 253.798 399.387 255.38 392.995C260.945 370.513 263.311 346.813 267.424 324C270.718 305.731 276.202 286.541 277 268C267.398 266.217 247.35 263.795 238.433 268.589C235.158 270.35 231.517 284.312 234.643 286.972C237.57 289.464 245.359 288 249 288z"/>
<path style="fill:#afa3c6; stroke:none;" d="M274.667 267.333L275.333 267.667L274.667 267.333M346 267L347 268L346 267M366 267L367 268L366 267z"/>
<path style="fill:#fec8a4; stroke:none;" d="M452 267L453 268L452 267z"/>
<path style="fill:#f6b088; stroke:none;" d="M503 267L504 268L503 267z"/>
<path style="fill:#fec8a4; stroke:none;" d="M544 267L545 268L544 267M910 267L911 268L910 267M1122 267L1123 268L1122 267M398 268L399 269L398 268M449 268L450 269L449 268M505 268L506 269L505 268z"/>
<path style="fill:#afa3c6; stroke:none;" d="M544 268L545 269L544 268z"/>
<path style="fill:#f6b088; stroke:none;" d="M705 268L706 269L705 268z"/>
<path style="fill:#afa3c6; stroke:none;" d="M911 268L912 269L911 268z"/>
<path style="fill:#f6b088; stroke:none;" d="M983.333 268.667L983.667 269.333L983.333 268.667z"/>
<path style="fill:#fec8a4; stroke:none;" d="M995 268L996 269L995 268z"/>
<path style="fill:#f6b088; stroke:none;" d="M1120 268L1121 269L1120 268M1191 268L1192 269L1191 268z"/>
<path style="fill:#fec8a4; stroke:none;" d="M69 269L70 270L69 269M104 269L105 270L104 269M236 269L237 270L236 269M322 269L323 270L322 269z"/>
<path style="fill:#afa3c6; stroke:none;" d="M506 269L507 270L506 269z"/>
<path style="fill:#f6b088; stroke:none;" d="M569 269L570 270L569 269z"/>
<path style="fill:#fec8a4; stroke:none;" d="M643 269L644 270L643 269z"/>
<path style="fill:#afa3c6; stroke:none;" d="M847 269L848 270L847 269z"/>
<path style="fill:#f6b088; stroke:none;" d="M1119 269L1120 270L1119 269z"/>
<path style="fill:#fec8a4; stroke:none;" d="M68 270L69 271L68 270M105 270L106 271L105 270z"/>
<path style="fill:#afa3c6; stroke:none;" d="M322 270L323 271L322 270M360 270L361 271L360 270z"/>
<path style="fill:#f6b088; stroke:none;" d="M641 270L642 271L641 270z"/>
<path style="fill:#fec8a4; stroke:none;" d="M845 270L846 271L845 270M914 270L915 271L914 270M992 270L993 271L992 270z"/>
<path style="fill:#afa3c6; stroke:none;" d="M1117 270L1118 271L1117 270M1193 270L1194 271L1193 270z"/>
<path style="fill:#fec8a4; stroke:none;" d="M67 271L68 272L67 271M106 271L107 272L106 271M235 271L236 272L235 271z"/>
<path style="fill:#f6b088; stroke:none;" d="M346 271L347 272L346 271z"/>
<path style="fill:#fec8a4; stroke:none;" d="M358 271L359 272L358 271z"/>
<path style="fill:#f6b088; stroke:none;" d="M543 271L544 272L543 271M639 271L640 272L639 271M709 271L710 272L709 271M915 271L916 272L915 271z"/>
<path style="fill:#fec8a4; stroke:none;" d="M1116 271L1117 272L1116 271z"/>
<path style="fill:#f6b088; stroke:none;" d="M1194 271L1195 272L1194 271z"/>
<path style="fill:#fec8a4; stroke:none;" d="M346 272L347 273L346 272M397 272L398 273L397 272M842 272L843 273L842 272z"/>
<path style="fill:#f6b088; stroke:none;" d="M916 272L917 273L916 272M984 272L984 275L985 275L984 272M1195 272L1196 273L1195 272M235.333 273.667L235.667 274.333L235.333 273.667M276.333 273.667L276.667 274.333L276.333 273.667z"/>
<path style="fill:#fec8a4; stroke:none;" d="M440 273L441 274L440 273z"/>
<path style="fill:#f6b088; stroke:none;" d="M506.333 273.667L506.667 274.333L506.333 273.667M568 273L569 274L568 273z"/>
<path style="fill:#fec8a4; stroke:none;" d="M841 273L842 274L841 273z"/>
<path style="fill:#f6b088; stroke:none;" d="M917 273L918 274L917 273z"/>
<path style="fill:#fec8a4; stroke:none;" d="M1058 273L1059 274L1058 273M65 274L66 275L65 274M108 274L109 275L108 274M354 274L355 275L354 274M568.333 274.667L568.667 275.333L568.333 274.667z"/>
<path style="fill:#f6b088; stroke:none;" d="M988 274L989 275L988 274z"/>
<path style="fill:#fec8a4; stroke:none;" d="M276 275L277 276L276 275M321 275L322 276L321 275M353 275L354 276L353 275z"/>
<path style="fill:#f6b088; stroke:none;" d="M396 275L397 276L396 275z"/>
<path style="fill:#fec8a4; stroke:none;" d="M437 275L438 276L437 275M506 275L507 276L506 275M633 275L634 276L633 275z"/>
<path style="fill:#f6b088; stroke:none;" d="M713 275L714 276L713 275M919 275L920 276L919 275M1059 275L1060 276L1059 275M1197 275L1198 276L1197 275z"/>
<path style="fill:#afa3c6; stroke:none;" d="M321 276L322 277L321 276z"/>
<path style="fill:#fec8a4; stroke:none;" d="M396 276L397 277L396 276z"/>
<path style="fill:#f6b088; stroke:none;" d="M714 276L715 277L714 276z"/>
<path style="fill:#fec8a4; stroke:none;" d="M837 276L838 277L837 276z"/>
<path style="fill:#f6b088; stroke:none;" d="M920 276L921 277L920 276M345.333 277.667L345.667 278.333L345.333 277.667z"/>
<path style="fill:#afa3c6; stroke:none;" d="M542 277L543 278L542 277z"/>
<path style="fill:#fec8a4; stroke:none;" d="M836 277L837 278L836 277z"/>
<path style="fill:#f6b088; stroke:none;" d="M275 278L275 281L276 281L275 278z"/>
<path style="fill:#fec8a4; stroke:none;" d="M349 278L350 279L349 278M433 278L434 279L433 278z"/>
<path style="fill:#f6b088; stroke:none;" d="M567 278L568 279L567 278M715 278L716 279L715 278z"/>
<path style="fill:#afa3c6; stroke:none;" d="M835 278L836 279L835 278z"/>
<path style="fill:#f6b088; stroke:none;" d="M921 278L922 279L921 278z"/>
<path style="fill:#afa3c6; stroke:none;" d="M960.333 278.667L960.667 279.333L960.333 278.667z"/>
<path style="fill:#fec8a4; stroke:none;" d="M1107 278L1108 279L1107 278M1199 278L1200 279L1199 278M345.333 279.667L345.667 280.333L345.333 279.667z"/>
<path style="fill:#f6b088; stroke:none;" d="M395 279L396 280L395 279z"/>
<path style="fill:#fec8a4; stroke:none;" d="M628 279L629 280L628 279z"/>
<path style="fill:#f6b088; stroke:none;" d="M716 279L717 280L716 279M922 279L923 280L922 279z"/>
<path style="fill:#fec8a4; stroke:none;" d="M1061 279L1062 280L1061 279z"/>
<path style="fill:#f6b088; stroke:none;" d="M62 280L63 281L62 280M111 280L112 281L111 280z"/>
<path style="fill:#fec8a4; stroke:none;" d="M320 280L321 281L320 280z"/>
<path style="fill:#f6b088; stroke:none;" d="M505 280L506 281L505 280z"/>
<path style="fill:#fec8a4; stroke:none;" d="M960 280L961 281L960 280z"/>
<path style="fill:#f6b088; stroke:none;" d="M1061 280L1062 281L1061 280z"/>
<path style="fill:#fec8a4; stroke:none;" d="M1105 280L1106 281L1105 280z"/>
<path style="fill:#f6b088; stroke:none;" d="M1148.67 280.333L1149.33 280.667L1148.67 280.333z"/>
<path style="fill:#ffffff; stroke:none;" d="M1115 315C1123.67 316.789 1131.8 318.403 1140.71 317.822C1151.07 317.147 1165 314.696 1172.32 306.674C1177.53 300.956 1179.4 289.144 1172.78 283.653C1152.5 266.836 1116.15 292.857 1115 315z"/>
<path style="fill:#f6b088; stroke:none;" d="M1164.67 280.333L1165.33 280.667L1164.67 280.333z"/>
<path style="fill:#afa3c6; stroke:none;" d="M320 281L321 282L320 281M345 281L346 282L345 281M869 281L870 282L869 281z"/>
<path style="fill:#fec8a4; stroke:none;" d="M870 281L871 282L870 281z"/>
<path style="fill:#ffffff; stroke:none;" d="M871 281.515C842.611 287.334 834.926 320.358 833.184 345C831.629 367.015 846.133 380.887 868 376.536C894.528 371.259 905.756 335.908 904.42 312C903.305 292.055 893.364 276.93 871 281.515z"/>
<path style="fill:#fec8a4; stroke:none;" d="M885 281L886 282L885 281z"/>
<path style="fill:#afa3c6; stroke:none;" d="M886 281L887 282L886 281z"/>
<path style="fill:#f6b088; stroke:none;" d="M960 281L961 282L960 281M1009 281L1010 282L1009 281z"/>
<path style="fill:#fec8a4; stroke:none;" d="M1024 281L1025 282L1024 281M1104 281L1105 282L1104 281M1145 281L1146 282L1145 281z"/>
<path style="fill:#f6b088; stroke:none;" d="M1169 281L1170 282L1169 281z"/>
<path style="fill:#fec8a4; stroke:none;" d="M1200 281L1201 282L1200 281z"/>
<path style="fill:#afa3c6; stroke:none;" d="M233.333 282.667L233.667 283.333L233.333 282.667z"/>
<path style="fill:#f6b088; stroke:none;" d="M394 282L395 283L394 282M541 282L542 283L541 282M566.333 282.667L566.667 283.333L566.333 282.667z"/>
<path style="fill:#fec8a4; stroke:none;" d="M624 282L625 283L624 282z"/>
<path style="fill:#f6b088; stroke:none;" d="M717 282L718 283L717 282z"/>
<path style="fill:#fec8a4; stroke:none;" d="M831 282L832 283L831 282z"/>
<path style="fill:#f6b088; stroke:none;" d="M866.667 282.333L867.333 282.667L866.667 282.333M889 282L890 283L889 282M1006 282L1007 283L1006 282M1026 282L1027 283L1026 282M1171 282L1172 283L1171 282M1200 282L1201 283L1200 282z"/>
<path style="fill:#fec8a4; stroke:none;" d="M61 283L62 284L61 283M112 283L113 284L112 283M394 283L395 284L394 283z"/>
<path style="fill:#f6b088; stroke:none;" d="M504.333 283.667L504.667 284.333L504.333 283.667z"/>
<path style="fill:#afa3c6; stroke:none;" d="M664.667 283.333L665.333 283.667L664.667 283.333z"/>
<path style="fill:#fec8a4; stroke:none;" d="M666 283L667 284L666 283z"/>
<path style="fill:#ffffff; stroke:none;" d="M633 318C641.462 319.934 649.319 321.31 658 320.285C664.564 319.511 670.591 319.254 677 317.275C688.417 313.751 704.492 296.408 689.815 285.995C668.669 270.993 635.207 296.007 633 318z"/>
<path style="fill:#fec8a4; stroke:none;" d="M684 283L685 284L684 283M830 283L831 284L830 283M863 283L864 284L863 283z"/>
<path style="fill:#f6b088; stroke:none;" d="M891 283L892 284L891 283z"/>
<path style="fill:#fec8a4; stroke:none;" d="M1003 283L1004 284L1003 283z"/>
<path style="fill:#f6b088; stroke:none;" d="M1029 283L1030 284L1029 283z"/>
<path style="fill:#fec8a4; stroke:none;" d="M485 284L486 285L485 284z"/>
<path style="fill:#afa3c6; stroke:none;" d="M486 284L487 285L486 284z"/>
<path style="fill:#fec8a4; stroke:none;" d="M566 284L567 285L566 284M662 284L663 285L662 284z"/>
<path style="fill:#f6b088; stroke:none;" d="M687 284L688 285L687 284z"/>
<path style="fill:#fec8a4; stroke:none;" d="M718 284L719 285L718 284M829 284L830 285L829 284z"/>
<path style="fill:#f6b088; stroke:none;" d="M861 284L862 285L861 284M893 284L894 285L893 284M925 284L926 285L925 284M1001 284L1002 285L1001 284M1030 284L1031 285L1030 284z"/>
<path style="fill:#fec8a4; stroke:none;" d="M1062 284L1063 285L1062 284z"/>
<path style="fill:#f6b088; stroke:none;" d="M274 285L275 286L274 285M381 285L382 286L381 285z"/>
<path style="fill:#afa3c6; stroke:none;" d="M466 285L467 286L466 285z"/>
<path style="fill:#fec8a4; stroke:none;" d="M491 285L492 286L491 285M659 285L660 286L659 285z"/>
<path style="fill:#f6b088; stroke:none;" d="M689 285L690 286L689 285M718 285L719 286L718 285M895 285L896 286L895 285M1062 285L1063 286L1062 285z"/>
<path style="fill:#fec8a4; stroke:none;" d="M319 286L320 287L319 286z"/>
<path style="fill:#f6b088; stroke:none;" d="M384 286L385 287L384 286M393 286L394 287L393 286z"/>
<path style="fill:#fec8a4; stroke:none;" d="M621 286L622 287L621 286M657 286L658 287L657 286z"/>
<path style="fill:#f6b088; stroke:none;" d="M858 286L859 287L858 286M896 286L897 287L896 286M926 286L927 287L926 286M997 286L998 287L997 286z"/>
<path style="fill:#fec8a4; stroke:none;" d="M1032 286L1033 287L1032 286z"/>
<path style="fill:#afa3c6; stroke:none;" d="M1100 286L1101 287L1100 286z"/>
<path style="fill:#f6b088; stroke:none;" d="M1133 286L1134 287L1133 286M1175 286L1176 287L1175 286z"/>
<path style="fill:#fec8a4; stroke:none;" d="M233 287L234 288L233 287z"/>
<path style="fill:#afa3c6; stroke:none;" d="M319 287L320 288L319 287z"/>
<path style="fill:#fec8a4; stroke:none;" d="M496 287L497 288L496 287M540 287L541 288L540 287M620 287L621 288L620 287z"/>
<path style="fill:#f6b088; stroke:none;" d="M654 287L655 288L654 287M897 287L898 288L897 287z"/>
<path style="fill:#fec8a4; stroke:none;" d="M995 287L996 288L995 287M1099 287L1100 288L1099 287M1201 287L1202 288L1201 287z"/>
<path style="fill:#f6b088; stroke:none;" d="M248 288L249 289L248 288z"/>
<path style="fill:#afa3c6; stroke:none;" d="M360 288L361 289L360 288z"/>
<path style="fill:#f6b088; stroke:none;" d="M361 288L362 289L361 288M388 288L389 289L388 288M392 288L393 289L392 288z"/>
<path style="fill:#afa3c6; stroke:none;" d="M423 288L424 289L423 288z"/>
<path style="fill:#f6b088; stroke:none;" d="M498 288L499 289L498 288z"/>
<path style="fill:#fec8a4; stroke:none;" d="M503 288L504 289L503 288z"/>
<path style="fill:#f6b088; stroke:none;" d="M565.333 288.667L565.667 289.333L565.333 288.667z"/>
<path style="fill:#fec8a4; stroke:none;" d="M619 288L620 289L619 288z"/>
<path style="fill:#f6b088; stroke:none;" d="M653 288L654 289L653 288M692 288L693 289L692 288z"/>
<path style="fill:#afa3c6; stroke:none;" d="M826 288L827 289L826 288z"/>
<path style="fill:#f6b088; stroke:none;" d="M855 288L856 289L855 288M898 288L899 289L898 288z"/>
<path style="fill:#fec8a4; stroke:none;" d="M960 288L960 291L961 291L960 288M1098 288L1099 289L1098 288z"/>
<path style="fill:#f6b088; stroke:none;" d="M1130 288L1131 289L1130 288M1201 288L1201 294L1202 294L1201 288M273.333 289.667L273.667 290.333L273.333 289.667M390 289L391 290L390 289z"/>
<path style="fill:#fec8a4; stroke:none;" d="M500 289L501 290L500 289z"/>
<path style="fill:#afa3c6; stroke:none;" d="M502 289L503 290L502 289z"/>
<path style="fill:#f6b088; stroke:none;" d="M651 289L652 290L651 289M719 289L720 290L719 289z"/>
<path style="fill:#fec8a4; stroke:none;" d="M825 289L826 290L825 289z"/>
<path style="fill:#f6b088; stroke:none;" d="M854 289L855 290L854 289z"/>
<path style="fill:#fec8a4; stroke:none;" d="M927 289L928 290L927 289z"/>
<path style="fill:#f6b088; stroke:none;" d="M992 289L993 290L992 289z"/>
<path style="fill:#fec8a4; stroke:none;" d="M1176 289L1177 290L1176 289z"/>
<path style="fill:#afa3c6; stroke:none;" d="M455 290L456 291L455 290z"/>
<path style="fill:#f6b088; stroke:none;" d="M650 290L651 291L650 290M853 290L854 291L853 290M899 290L900 291L899 290M991 290L992 291L991 290z"/>
<path style="fill:#afa3c6; stroke:none;" d="M1097 290L1098 291L1097 290z"/>
<path style="fill:#fec8a4; stroke:none;" d="M318 291L319 292L318 291z"/>
<path style="fill:#f6b088; stroke:none;" d="M356 291L357 292L356 291M719 291L720 292L719 291z"/>
<path style="fill:#afa3c6; stroke:none;" d="M824 291L825 292L824 291z"/>
<path style="fill:#f6b088; stroke:none;" d="M852 291L853 292L852 291M900 291L901 292L900 291z"/>
<path style="fill:#afa3c6; stroke:none;" d="M960 291L961 292L960 291z"/>
<path style="fill:#f6b088; stroke:none;" d="M1035 291L1036 292L1035 291z"/>
<path style="fill:#fec8a4; stroke:none;" d="M1063 291L1064 292L1063 291M248 292L249 293L248 292z"/>
<path style="fill:#afa3c6; stroke:none;" d="M318 292L319 293L318 292M539 292L540 293L539 292M616 292L617 293L616 292z"/>
<path style="fill:#f6b088; stroke:none;" d="M851 292L852 293L851 292z"/>
<path style="fill:#fec8a4; stroke:none;" d="M928 292L929 293L928 292z"/>
<path style="fill:#f6b088; stroke:none;" d="M1063.33 292.667L1063.67 293.333L1063.33 292.667z"/>
<path style="fill:#fec8a4; stroke:none;" d="M1126 292L1127 293L1126 292z"/>
<path style="fill:#f6b088; stroke:none;" d="M564 293L565 294L564 293M928.333 293.667L928.667 294.333L928.333 293.667z"/>
<path style="fill:#fec8a4; stroke:none;" d="M1095 293L1096 294L1095 293z"/>
<path style="fill:#f6b088; stroke:none;" d="M1125 293L1126 294L1125 293z"/>
<path style="fill:#fec8a4; stroke:none;" d="M450 294L451 295L450 294M564 294L565 295L564 294z"/>
<path style="fill:#f6b088; stroke:none;" d="M1036 294L1037 295L1036 294z"/>
<path style="fill:#fec8a4; stroke:none;" d="M1201 294L1201 298L1202 298L1201 294M61 295L62 296L61 295M112 295L113 296L112 295M614 295L615 296L614 295M821 295L822 296L821 295z"/>
<path style="fill:#afa3c6; stroke:none;" d="M1094 295L1095 296L1094 295z"/>
<path style="fill:#f6b088; stroke:none;" d="M272 296L273 297L272 296z"/>
<path style="fill:#fec8a4; stroke:none;" d="M417 296L418 297L417 296M538 296L539 297L538 296M613 296L614 297L613 296M959 296L960 297L959 296M1093 296L1094 297L1093 296M247 297L248 298L247 297M272 297L273 298L272 297M350 297L351 298L350 297z"/>
<path style="fill:#f6b088; stroke:none;" d="M538 297L539 298L538 297M719 297L719 301L720 301L719 297z"/>
<path style="fill:#afa3c6; stroke:none;" d="M820 297L821 298L820 297z"/>
<path style="fill:#f6b088; stroke:none;" d="M847 297L848 298L847 297z"/>
<path style="fill:#fec8a4; stroke:none;" d="M929 297L930 298L929 297z"/>
<path style="fill:#f6b088; stroke:none;" d="M959 297L960 298L959 297M984 297L985 298L984 297z"/>
<path style="fill:#fec8a4; stroke:none;" d="M62 298L63 299L62 298M111 298L112 299L111 298z"/>
<path style="fill:#f6b088; stroke:none;" d="M247 298L248 299L247 298z"/>
<path style="fill:#afa3c6; stroke:none;" d="M317 298L318 299L317 298z"/>
<path style="fill:#fec8a4; stroke:none;" d="M416 298L417 299L416 298M819 298L820 299L819 298z"/>
<path style="fill:#f6b088; stroke:none;" d="M846 298L847 299L846 298M929 298L930 299L929 298z"/>
<path style="fill:#fec8a4; stroke:none;" d="M984 298L985 299L984 298z"/>
<path style="fill:#f6b088; stroke:none;" d="M1121 298L1122 299L1121 298z"/>
<path style="fill:#fec8a4; stroke:none;" d="M1176 298L1177 299L1176 298z"/>
<path style="fill:#f6b088; stroke:none;" d="M348 299L349 300L348 299M563 299L564 300L563 299M903 299L904 300L903 299M1063 299L1063 303L1064 303L1063 299M347 300L348 301L347 300z"/>
<path style="fill:#fec8a4; stroke:none;" d="M415 300L416 301L415 300M444 300L445 301L444 300z"/>
<path style="fill:#f6b088; stroke:none;" d="M640 300L641 301L640 300z"/>
<path style="fill:#fec8a4; stroke:none;" d="M903.333 300.667L903.667 301.333L903.333 300.667M1091 300L1092 301L1091 300z"/>
<path style="fill:#f6b088; stroke:none;" d="M1200 300L1201 301L1200 300M271.333 301.667L271.667 302.333L271.333 301.667M443 301L444 302L443 301z"/>
<path style="fill:#fec8a4; stroke:none;" d="M719 301L720 302L719 301z"/>
<path style="fill:#f6b088; stroke:none;" d="M844 301L845 302L844 301M983.333 301.667L983.667 302.333L983.333 301.667z"/>
<path style="fill:#fec8a4; stroke:none;" d="M1200 301L1201 302L1200 301M316 302L317 303L316 302M414 302L415 303L414 302z"/>
<path style="fill:#afa3c6; stroke:none;" d="M537 302L538 303L537 302z"/>
<path style="fill:#fec8a4; stroke:none;" d="M639 302L640 303L639 302z"/>
<path style="fill:#afa3c6; stroke:none;" d="M694 302L695 303L694 302z"/>
<path style="fill:#fec8a4; stroke:none;" d="M817 302L818 303L817 302z"/>
<path style="fill:#f6b088; stroke:none;" d="M843 302L844 303L843 302z"/>
<path style="fill:#fec8a4; stroke:none;" d="M1090 302L1091 303L1090 302z"/>
<path style="fill:#f6b088; stroke:none;" d="M345 303L346 304L345 303z"/>
<path style="fill:#fec8a4; stroke:none;" d="M843 303L844 304L843 303M958 303L959 304L958 303z"/>
<path style="fill:#f6b088; stroke:none;" d="M65 304L66 305L65 304z"/>
<path style="fill:#fec8a4; stroke:none;" d="M108 304L109 305L108 304M246 304L247 305L246 304M562.333 304.667L562.667 305.333L562.333 304.667z"/>
<path style="fill:#f6b088; stroke:none;" d="M718 304L719 305L718 304z"/>
<path style="fill:#afa3c6; stroke:none;" d="M816 304L817 305L816 304z"/>
<path style="fill:#f6b088; stroke:none;" d="M904 304L904 309L905 309L904 304z"/>
<path style="fill:#fec8a4; stroke:none;" d="M1089 304L1090 305L1089 304z"/>
<path style="fill:#f6b088; stroke:none;" d="M1199.33 304.667L1199.67 305.333L1199.33 304.667M344 305L345 306L344 305M440 305L441 306L440 305M637 305L638 306L637 305z"/>
<path style="fill:#afa3c6; stroke:none;" d="M693 305L694 306L693 305z"/>
<path style="fill:#fec8a4; stroke:none;" d="M718 305L719 306L718 305z"/>
<path style="fill:#f6b088; stroke:none;" d="M842 305L843 306L842 305M1117 305L1118 306L1117 305z"/>
<path style="fill:#fec8a4; stroke:none;" d="M1173 305L1174 306L1173 305z"/>
<path style="fill:#f6b088; stroke:none;" d="M270.333 306.667L270.667 307.333L270.333 306.667M412 306L413 307L412 306z"/>
<path style="fill:#fec8a4; stroke:none;" d="M536 306L537 307L536 306z"/>
<path style="fill:#afa3c6; stroke:none;" d="M608 306L609 307L608 306z"/>
<path style="fill:#fec8a4; stroke:none;" d="M692 306L693 307L692 306z"/>
<path style="fill:#f6b088; stroke:none;" d="M982 306L982 309L983 309L982 306z"/>
<path style="fill:#fec8a4; stroke:none;" d="M1088 306L1089 307L1088 306M1172 306L1173 307L1172 306M67 307L68 308L67 307M106 307L107 308L106 307z"/>
<path style="fill:#f6b088; stroke:none;" d="M636 307L637 308L636 307M841 307L842 308L841 307z"/>
<path style="fill:#fec8a4; stroke:none;" d="M930.333 307.667L930.667 308.333L930.333 307.667z"/>
<path style="fill:#f6b088; stroke:none;" d="M1116 307L1117 308L1116 307M1198 307L1199 308L1198 307z"/>
<path style="fill:#fec8a4; stroke:none;" d="M68 308L69 309L68 308M105 308L106 309L105 308M315 308L316 309L315 308z"/>
<path style="fill:#f6b088; stroke:none;" d="M561.333 308.667L561.667 309.333L561.333 308.667M717 308L718 309L717 308M840 308L841 309L840 308z"/>
<path style="fill:#fec8a4; stroke:none;" d="M1170 308L1171 309L1170 308M69 309L70 310L69 309M104 309L105 310L104 309z"/>
<path style="fill:#afa3c6; stroke:none;" d="M315 309L316 310L315 309z"/>
<path style="fill:#fec8a4; stroke:none;" d="M690 309L691 310L690 309M814 309L815 310L814 309M904 309L904 312L905 312L904 309z"/>
<path style="fill:#f6b088; stroke:none;" d="M1062.33 309.667L1062.67 310.333L1062.33 309.667M1115 309L1116 310L1115 309z"/>
<path style="fill:#fec8a4; stroke:none;" d="M1169 309L1170 310L1169 309z"/>
<path style="fill:#f6b088; stroke:none;" d="M341 310L342 311L341 310z"/>
<path style="fill:#fec8a4; stroke:none;" d="M535 310L536 311L535 310M561 310L562 311L561 310M689 310L690 311L689 310M930 310L930 316L931 316L930 310z"/>
<path style="fill:#afa3c6; stroke:none;" d="M1167 310L1168 311L1167 310z"/>
<path style="fill:#f6b088; stroke:none;" d="M72 311L73 312L72 311M101 311L102 312L101 311z"/>
<path style="fill:#fec8a4; stroke:none;" d="M410 311L411 312L410 311z"/>
<path style="fill:#f6b088; stroke:none;" d="M535 311L536 312L535 311z"/>
<path style="fill:#fec8a4; stroke:none;" d="M606 311L607 312L606 311z"/>
<path style="fill:#f6b088; stroke:none;" d="M634 311L635 312L634 311M688 311L689 312L688 311M716 311L717 312L716 311M813 311L814 312L813 311M839 311L840 312L839 311z"/>
<path style="fill:#fec8a4; stroke:none;" d="M1062 311L1063 312L1062 311z"/>
<path style="fill:#f6b088; stroke:none;" d="M1196 311L1197 312L1196 311M269.333 312.667L269.667 313.333L269.333 312.667M436 312L437 313L436 312M715.333 312.667L715.667 313.333L715.333 312.667M981.333 312.667L981.667 313.333L981.333 312.667M1086 312L1087 313L1086 312z"/>
<path style="fill:#afa3c6; stroke:none;" d="M1163 312L1164 313L1163 312z"/>
<path style="fill:#fec8a4; stroke:none;" d="M75 313L76 314L75 313M98 313L99 314L98 313z"/>
<path style="fill:#f6b088; stroke:none;" d="M340 313L341 314L340 313z"/>
<path style="fill:#fec8a4; stroke:none;" d="M605 313L606 314L605 313z"/>
<path style="fill:#f6b088; stroke:none;" d="M633 313L634 314L633 313z"/>
<path style="fill:#afa3c6; stroke:none;" d="M1161 313L1162 314L1161 313z"/>
<path style="fill:#fec8a4; stroke:none;" d="M269.333 314.667L269.667 315.333L269.333 314.667z"/>
<path style="fill:#afa3c6; stroke:none;" d="M314 314L315 315L314 314z"/>
<path style="fill:#f6b088; stroke:none;" d="M560 314L561 315L560 314z"/>
<path style="fill:#fec8a4; stroke:none;" d="M683 314L684 315L683 314z"/>
<path style="fill:#afa3c6; stroke:none;" d="M812 314L813 315L812 314z"/>
<path style="fill:#f6b088; stroke:none;" d="M838 314L839 315L838 314z"/>
<path style="fill:#fec8a4; stroke:none;" d="M904 314L904 317L905 317L904 314M981 314L982 315L981 314z"/>
<path style="fill:#f6b088; stroke:none;" d="M1061.33 314.667L1061.67 315.333L1061.33 314.667z"/>
<path style="fill:#afa3c6; stroke:none;" d="M1158 314L1159 315L1158 314z"/>
<path style="fill:#f6b088; stroke:none;" d="M1194 314L1195 315L1194 314z"/>
<path style="fill:#fec8a4; stroke:none;" d="M81 315L82 316L81 315M92 315L93 316L92 315z"/>
<path style="fill:#f6b088; stroke:none;" d="M435 315L436 316L435 315z"/>
<path style="fill:#fec8a4; stroke:none;" d="M560 315L561 316L560 315M838 315L839 316L838 315z"/>
<path style="fill:#f6b088; stroke:none;" d="M1117 315L1118 316L1117 315z"/>
<path style="fill:#fec8a4; stroke:none;" d="M339 316L340 317L339 316z"/>
<path style="fill:#afa3c6; stroke:none;" d="M604 316L605 317L604 316z"/>
<path style="fill:#f6b088; stroke:none;" d="M679 316L680 317L679 316M713 316L714 317L713 316z"/>
<path style="fill:#fec8a4; stroke:none;" d="M1061 316L1062 317L1061 316z"/>
<path style="fill:#afa3c6; stroke:none;" d="M1120 316L1121 317L1120 316z"/>
<path style="fill:#f6b088; stroke:none;" d="M1121 316L1122 317L1121 316M1149 316L1150 317L1149 316M434 317L435 318L434 317M534 317L535 318L534 317M676 317L677 318L676 317z"/>
<path style="fill:#fec8a4; stroke:none;" d="M811 317L812 318L811 317z"/>
<path style="fill:#f6b088; stroke:none;" d="M837 317L838 318L837 317M904 317L905 318L904 317z"/>
<path style="fill:#fec8a4; stroke:none;" d="M1035 317L1036 318L1035 317z"/>
<path style="fill:#f6b088; stroke:none;" d="M1125 317L1125 318L1128 318L1125 317M1141 317L1142 318L1141 317M1192 317L1193 318L1192 317M268.333 318.667L268.667 319.333L268.333 318.667M559 318L560 319L559 318M635 318L636 319L635 318M672.667 318.333L673.333 318.667L672.667 318.333z"/>
<path style="fill:#fec8a4; stroke:none;" d="M837 318L838 319L837 318M955 318L956 319L955 318M243 319L244 320L243 319M313 319L314 320L313 319z"/>
<path style="fill:#f6b088; stroke:none;" d="M338 319L339 320L338 319M603 319L604 320L603 319M638 319L639 320L638 319M668 319L669 320L668 319M904 319L905 320L904 319M955 319L956 320L955 319M980 319L981 320L980 319M1190 319L1191 320L1190 319M243 320L244 321L243 320z"/>
<path style="fill:#fec8a4; stroke:none;" d="M338 320L339 321L338 320M433 320L434 321L433 320z"/>
<path style="fill:#afa3c6; stroke:none;" d="M603 320L604 321L603 320z"/>
<path style="fill:#f6b088; stroke:none;" d="M645.667 320.333L646.333 320.667L645.667 320.333M656 320L656 321L662 321L656 320z"/>
<path style="fill:#fec8a4; stroke:none;" d="M904 320L905 321L904 320M980 320L981 321L980 320z"/>
<path style="fill:#f6b088; stroke:none;" d="M1060.33 320.667L1060.67 321.333L1060.33 320.667M1189 320L1190 321L1189 320M533 321L534 322L533 321M709 321L710 322L709 321z"/>
<path style="fill:#fec8a4; stroke:none;" d="M810 321L811 322L810 321z"/>
<path style="fill:#f6b088; stroke:none;" d="M836 321L837 322L836 321M929 321L929 324L930 324L929 321z"/>
<path style="fill:#fec8a4; stroke:none;" d="M1034 321L1035 322L1034 321M1188 321L1189 322L1188 321z"/>
<path style="fill:#f6b088; stroke:none;" d="M432 322L433 323L432 322M558.333 322.667L558.667 323.333L558.333 322.667M708 322L709 323L708 322M1034 322L1035 323L1034 322z"/>
<path style="fill:#fec8a4; stroke:none;" d="M1060 322L1061 323L1060 322M1187 322L1188 323L1187 322z"/>
<path style="fill:#f6b088; stroke:none;" d="M267 323L268 324L267 323M337 323L338 324L337 323z"/>
<path style="fill:#fec8a4; stroke:none;" d="M432 323L433 324L432 323z"/>
<path style="fill:#f6b088; stroke:none;" d="M979 323L980 324L979 323z"/>
<path style="fill:#fec8a4; stroke:none;" d="M267.333 324.667L267.667 325.333L267.333 324.667M406 324L407 325L406 324M602 324L603 325L602 324z"/>
<path style="fill:#f6b088; stroke:none;" d="M835.333 324.667L835.667 325.333L835.333 324.667z"/>
<path style="fill:#fec8a4; stroke:none;" d="M929 324L930 325L929 324M979 324L980 325L979 324M312 325L313 326L312 325M809 325L810 326L809 325M903.333 325.667L903.667 326.333L903.333 325.667M954 325L955 326L954 325z"/>
<path style="fill:#f6b088; stroke:none;" d="M1183 325L1184 326L1183 325z"/>
<path style="fill:#afa3c6; stroke:none;" d="M312 326L313 327L312 326z"/>
<path style="fill:#f6b088; stroke:none;" d="M431 326L432 327L431 326z"/>
<path style="fill:#fec8a4; stroke:none;" d="M532 326L533 327L532 326z"/>
<path style="fill:#afa3c6; stroke:none;" d="M809 326L810 327L809 326z"/>
<path style="fill:#fec8a4; stroke:none;" d="M835 326L836 327L835 326z"/>
<path style="fill:#f6b088; stroke:none;" d="M1059.33 326.667L1059.67 327.333L1059.33 326.667M1083 326L1084 327L1083 326z"/>
<path style="fill:#afa3c6; stroke:none;" d="M242 327L243 328L242 327z"/>
<path style="fill:#fec8a4; stroke:none;" d="M431 327L432 328L431 327z"/>
<path style="fill:#f6b088; stroke:none;" d="M557.333 327.667L557.667 328.333L557.333 327.667M702 327L703 328L702 327M903.333 327.667L903.667 328.333L903.333 327.667z"/>
<path style="fill:#fec8a4; stroke:none;" d="M701 328L702 329L701 328z"/>
<path style="fill:#f6b088; stroke:none;" d="M928 328L928 331L929 331L928 328M978 328L978 331L979 331L978 328M266.333 329.667L266.667 330.333L266.333 329.667M405 329L406 330L405 329z"/>
<path style="fill:#fec8a4; stroke:none;" d="M557 329L558 330L557 329z"/>
<path style="fill:#f6b088; stroke:none;" d="M834.333 329.667L834.667 330.333L834.333 329.667M1176 329L1177 330L1176 329z"/>
<path style="fill:#fec8a4; stroke:none;" d="M60 330L61 331L60 330z"/>
<path style="fill:#fe6703; stroke:none;" d="M61 330.465C56.0607 331.353 51.1997 333.135 47.0039 335.901C16.2203 356.196 42.1916 396.26 74 390.535C78.9393 389.647 83.8003 387.865 87.9961 385.099C118.78 364.804 92.8085 324.74 61 330.465z"/>
<path style="fill:#fec8a4; stroke:none;" d="M74 330L75 331L74 330z"/>
<path style="fill:#f6b088; stroke:none;" d="M336 330L337 331L336 330M601 330L602 331L601 330z"/>
<path style="fill:#fec8a4; stroke:none;" d="M808 330L809 331L808 330M56 331L57 332L56 331M78 331L79 332L78 331z"/>
<path style="fill:#afa3c6; stroke:none;" d="M241.333 331.667L241.667 332.333L241.333 331.667z"/>
<path style="fill:#fec8a4; stroke:none;" d="M266 331L267 332L266 331z"/>
<path style="fill:#afa3c6; stroke:none;" d="M311 331L312 332L311 331z"/>
<path style="fill:#fec8a4; stroke:none;" d="M336 331L337 332L336 331z"/>
<path style="fill:#f6b088; stroke:none;" d="M430.333 331.667L430.667 332.333L430.333 331.667z"/>
<path style="fill:#fec8a4; stroke:none;" d="M697 331L698 332L697 331z"/>
<path style="fill:#afa3c6; stroke:none;" d="M808 331L809 332L808 331z"/>
<path style="fill:#fec8a4; stroke:none;" d="M834 331L835 332L834 331M902 331L903 332L902 331z"/>
<path style="fill:#f6b088; stroke:none;" d="M953 331L954 332L953 331z"/>
<path style="fill:#fec8a4; stroke:none;" d="M978 331L979 332L978 331z"/>
<path style="fill:#f6b088; stroke:none;" d="M1058 331L1059 332L1058 331z"/>
<path style="fill:#fec8a4; stroke:none;" d="M53 332L54 333L53 332M81 332L82 333L81 332M531 332L532 333L531 332M695 332L696 333L695 332z"/>
<path style="fill:#f6b088; stroke:none;" d="M902 332L903 333L902 332M335 333L336 334L335 333M556 333L557 334L556 333z"/>
<path style="fill:#fec8a4; stroke:none;" d="M1032 333L1033 334L1032 333z"/>
<path style="fill:#f6b088; stroke:none;" d="M49 334L50 335L49 334M85 334L86 335L85 334z"/>
<path style="fill:#fec8a4; stroke:none;" d="M556 334L557 335L556 334z"/>
<path style="fill:#f6b088; stroke:none;" d="M927 334L928 335L927 334z"/>
<path style="fill:#afa3c6; stroke:none;" d="M1032 334L1033 335L1032 334z"/>
<path style="fill:#f6b088; stroke:none;" d="M1113 334L1114 335L1113 334z"/>
<path style="fill:#fec8a4; stroke:none;" d="M1165 334L1166 335L1165 334M47 335L48 336L47 335M87 335L88 336L87 335M688 335L689 336L688 335z"/>
<path style="fill:#f6b088; stroke:none;" d="M833.333 335.667L833.667 336.333L833.333 335.667M977 335L978 336L977 335z"/>
<path style="fill:#fec8a4; stroke:none;" d="M1116 335L1117 336L1116 335z"/>
<path style="fill:#afa3c6; stroke:none;" d="M1161 335L1162 336L1161 335M240 336L240 340L241 340L240 336z"/>
<path style="fill:#f6b088; stroke:none;" d="M265.333 336.667L265.667 337.333L265.333 336.667z"/>
<path style="fill:#fec8a4; stroke:none;" d="M310.333 336.667L310.667 337.333L310.333 336.667M404 336L405 337L404 336M686 336L687 337L686 336M807.333 336.667L807.667 337.333L807.333 336.667z"/>
<path style="fill:#f6b088; stroke:none;" d="M901 336L902 337L901 336z"/>
<path style="fill:#fec8a4; stroke:none;" d="M952 336L953 337L952 336M977 336L978 337L977 336M1082.33 336.667L1082.67 337.333L1082.33 336.667M44 337L45 338L44 337M90 337L91 338L90 337M530 337L531 338L530 337z"/>
<path style="fill:#afa3c6; stroke:none;" d="M683 337L684 338L683 337z"/>
<path style="fill:#fec8a4; stroke:none;" d="M833 337L833 343L834 343L833 337z"/>
<path style="fill:#afa3c6; stroke:none;" d="M952 337L953 338L952 337z"/>
<path style="fill:#fec8a4; stroke:none;" d="M1031 337L1032 338L1031 337z"/>
<path style="fill:#f6b088; stroke:none;" d="M1057.33 337.667L1057.67 338.333L1057.33 337.667z"/>
<path style="fill:#fec8a4; stroke:none;" d="M1125 337L1126 338L1125 337z"/>
<path style="fill:#afa3c6; stroke:none;" d="M1151 337L1152 338L1151 337z"/>
<path style="fill:#fec8a4; stroke:none;" d="M43 338L44 339L43 338M91 338L92 339L91 338z"/>
<path style="fill:#afa3c6; stroke:none;" d="M310 338L311 339L310 338z"/>
<path style="fill:#f6b088; stroke:none;" d="M555.333 338.667L555.667 339.333L555.333 338.667M634 338L635 339L634 338M680 338L681 339L680 338M807 338L807 344L808 344L807 338M926 338L927 339L926 338M1031.33 338.667L1031.67 339.333L1031.33 338.667M1082.33 338.667L1082.67 339.333L1082.33 338.667M1108 338L1108 341L1109 341L1108 338M1134 338L1134 339L1145 339L1134 338z"/>
<path style="fill:#fec8a4; stroke:none;" d="M1145 338L1146 339L1145 338M42 339L43 340L42 339M92 339L93 340L92 339z"/>
<path style="fill:#f6b088; stroke:none;" d="M334.333 339.667L334.667 340.333L334.333 339.667M429 339L429 345L430 345L429 339z"/>
<path style="fill:#fec8a4; stroke:none;" d="M638 339L639 340L638 339z"/>
<path style="fill:#f6b088; stroke:none;" d="M676 339L677 340L676 339z"/>
<path style="fill:#fec8a4; stroke:none;" d="M926 339L927 340L926 339z"/>
<path style="fill:#f6b088; stroke:none;" d="M641.667 340.333L642.333 340.667L641.667 340.333z"/>
<path style="fill:#afa3c6; stroke:none;" d="M670 340L671 341L670 340z"/>
<path style="fill:#fec8a4; stroke:none;" d="M671.667 340.333L672.333 340.667L671.667 340.333M900 340L901 341L900 340M1082 340L1083 341L1082 340z"/>
<path style="fill:#f6b088; stroke:none;" d="M40 341L41 342L40 341z"/>
<path style="fill:#fec8a4; stroke:none;" d="M94 341L95 342L94 341z"/>
<path style="fill:#f6b088; stroke:none;" d="M264 341L265 342L264 341z"/>
<path style="fill:#fec8a4; stroke:none;" d="M334.333 341.667L334.667 342.333L334.333 341.667z"/>
<path style="fill:#f6b088; stroke:none;" d="M650 341L651 342L650 341z"/>
<path style="fill:#fec8a4; stroke:none;" d="M652.667 341.333L653.333 341.667L652.667 341.333z"/>
<path style="fill:#f6b088; stroke:none;" d="M655 341L656 342L655 341z"/>
<path style="fill:#fec8a4; stroke:none;" d="M656 341L657 342L656 341M659 341L659 342L662 342L659 341z"/>
<path style="fill:#f6b088; stroke:none;" d="M925 341L926 342L925 341M976.333 341.667L976.667 342.333L976.333 341.667M1082 341L1083 342L1082 341z"/>
<path style="fill:#fec8a4; stroke:none;" d="M1108 341L1108 345L1109 345L1108 341M39 342L40 343L39 342M95 342L96 343L95 342M309 342L310 343L309 342M529 342L530 343L529 342z"/>
<path style="fill:#f6b088; stroke:none;" d="M899.333 342.667L899.667 343.333L899.333 342.667M951 342L952 343L951 342M1056.33 342.667L1056.67 343.333L1056.33 342.667z"/>
<path style="fill:#fec8a4; stroke:none;" d="M38 343L39 344L38 343z"/>
<path style="fill:#afa3c6; stroke:none;" d="M309 343L310 344L309 343M529 343L530 344L529 343z"/>
<path style="fill:#f6b088; stroke:none;" d="M554 343L555 344L554 343M239 344L240 345L239 344z"/>
<path style="fill:#fec8a4; stroke:none;" d="M554 344L555 345L554 344M1056.33 344.667L1056.67 345.333L1056.33 344.667z"/>
<path style="fill:#f6b088; stroke:none;" d="M333 345L334 346L333 345z"/>
<path style="fill:#fec8a4; stroke:none;" d="M429 345L430 346L429 345z"/>
<path style="fill:#f6b088; stroke:none;" d="M626 345L626 348L627 348L626 345M924 345L925 346L924 345z"/>
<path style="fill:#fec8a4; stroke:none;" d="M1030 345L1031 346L1030 345z"/>
<path style="fill:#f6b088; stroke:none;" d="M1108 345L1108 348L1109 348L1108 345z"/>
<path style="fill:#fec8a4; stroke:none;" d="M333 346L334 347L333 346z"/>
<path style="fill:#f6b088; stroke:none;" d="M898 346L899 347L898 346M975.333 346.667L975.667 347.333L975.333 346.667z"/>
<path style="fill:#fec8a4; stroke:none;" d="M429.333 347.667L429.667 348.333L429.333 347.667z"/>
<path style="fill:#afa3c6; stroke:none;" d="M528 347L529 348L528 347z"/>
<path style="fill:#f6b088; stroke:none;" d="M923 347L924 348L923 347z"/>
<path style="fill:#fec8a4; stroke:none;" d="M950 347L951 348L950 347M35 348L36 349L35 348M99 348L100 349L99 348M263 348L264 349L263 348z"/>
<path style="fill:#afa3c6; stroke:none;" d="M308.333 348.667L308.667 349.333L308.333 348.667z"/>
<path style="fill:#fec8a4; stroke:none;" d="M897 348L898 349L897 348z"/>
<path style="fill:#f6b088; stroke:none;" d="M1055 348L1056 349L1055 348M429.333 349.667L429.667 350.333L429.333 349.667M553 349L553 352L554 352L553 349z"/>
<path style="fill:#fec8a4; stroke:none;" d="M1055 349L1056 350L1055 349z"/>
<path style="fill:#f6b088; stroke:none;" d="M238 350L239 351L238 350M332.333 350.667L332.667 351.333L332.333 350.667z"/>
<path style="fill:#fec8a4; stroke:none;" d="M833 350L833 354L834 354L833 350M896 350L897 351L896 350z"/>
<path style="fill:#f6b088; stroke:none;" d="M922 350L923 351L922 350M1029 350L1030 351L1029 350z"/>
<path style="fill:#fec8a4; stroke:none;" d="M34 351L35 352L34 351z"/>
<path style="fill:#f6b088; stroke:none;" d="M100 351L101 352L100 351z"/>
<path style="fill:#fec8a4; stroke:none;" d="M922 351L923 352L922 351M1109 351L1110 352L1109 351z"/>
<path style="fill:#f6b088; stroke:none;" d="M262 352L263 353L262 352M527.333 352.667L527.667 353.333L527.333 352.667M895 352L896 353L895 352M974.333 352.667L974.667 353.333L974.333 352.667M1109.33 352.667L1109.67 353.333L1109.33 352.667M237.333 353.667L237.667 354.333L237.333 353.667z"/>
<path style="fill:#fec8a4; stroke:none;" d="M262.333 353.667L262.667 354.333L262.333 353.667z"/>
<path style="fill:#f6b088; stroke:none;" d="M807 353L807 356L808 356L807 353M921 353L922 354L921 353M949 353L950 354L949 353M1083.33 353.667L1083.67 354.333L1083.33 353.667z"/>
<path style="fill:#fec8a4; stroke:none;" d="M33 354L34 355L33 354M101 354L102 355L101 354z"/>
<path style="fill:#f6b088; stroke:none;" d="M601 354L602 355L601 354M627 354L628 355L627 354M833 354L834 355L833 354M1054.33 354.667L1054.67 355.333L1054.33 354.667M430 355L431 356L430 355M552 355L553 356L552 355z"/>
<path style="fill:#fec8a4; stroke:none;" d="M601 355L602 356L601 355z"/>
<path style="fill:#f6b088; stroke:none;" d="M920 355L921 356L920 355z"/>
<path style="fill:#fec8a4; stroke:none;" d="M1028 355L1029 356L1028 355M1083.33 355.667L1083.67 356.333L1083.33 355.667M1110 355L1111 356L1110 355z"/>
<path style="fill:#f6b088; stroke:none;" d="M331.333 356.667L331.667 357.333L331.333 356.667z"/>
<path style="fill:#fec8a4; stroke:none;" d="M552.333 356.667L552.667 357.333L552.333 356.667M807 356L808 357L807 356z"/>
<path style="fill:#f6b088; stroke:none;" d="M893 356L894 357L893 356M1110 356L1111 357L1110 356M919 357L920 358L919 357M261.333 358.667L261.667 359.333L261.333 358.667z"/>
<path style="fill:#fec8a4; stroke:none;" d="M431 358L432 359L431 358M526 358L527 359L526 358M834 358L835 359L834 358M948 358L949 359L948 358z"/>
<path style="fill:#f6b088; stroke:none;" d="M973.333 358.667L973.667 359.333L973.333 358.667z"/>
<path style="fill:#fec8a4; stroke:none;" d="M306 359L307 360L306 359z"/>
<path style="fill:#f6b088; stroke:none;" d="M431 359L432 360L431 359z"/>
<path style="fill:#afa3c6; stroke:none;" d="M526 359L527 360L526 359z"/>
<path style="fill:#f6b088; stroke:none;" d="M628 359L629 360L628 359M834 359L835 360L834 359M918 359L919 360L918 359M1084 359L1085 360L1084 359z"/>
<path style="fill:#fec8a4; stroke:none;" d="M1111 359L1112 360L1111 359z"/>
<path style="fill:#f6b088; stroke:none;" d="M551 360L551 365L552 365L551 360M1053 360L1054 361L1053 360z"/>
<path style="fill:#fec8a4; stroke:none;" d="M404 361L405 362L404 361M432 361L433 362L432 361z"/>
<path style="fill:#f6b088; stroke:none;" d="M629 361L630 362L629 361z"/>
<path style="fill:#afa3c6; stroke:none;" d="M890 361L891 362L890 361z"/>
<path style="fill:#f6b088; stroke:none;" d="M917 361L918 362L917 361z"/>
<path style="fill:#fec8a4; stroke:none;" d="M1053 361L1054 362L1053 361z"/>
<path style="fill:#f6b088; stroke:none;" d="M1112 361L1113 362L1112 361M330 362L331 363L330 362M432 362L433 363L432 362M602 362L603 363L602 362z"/>
<path style="fill:#fec8a4; stroke:none;" d="M835 362L836 363L835 362z"/>
<path style="fill:#f6b088; stroke:none;" d="M972.333 362.667L972.667 363.333L972.333 362.667M260.333 363.667L260.667 364.333L260.333 363.667z"/>
<path style="fill:#fec8a4; stroke:none;" d="M330 363L331 364L330 363M630 363L631 364L630 363M305 364L306 365L305 364z"/>
<path style="fill:#f6b088; stroke:none;" d="M915 364L916 365L915 364z"/>
<path style="fill:#fec8a4; stroke:none;" d="M947 364L948 365L947 364M972 364L973 365L972 364z"/>
<path style="fill:#f6b088; stroke:none;" d="M1085 364L1086 365L1085 364M1114 364L1115 365L1114 364z"/>
<path style="fill:#fec8a4; stroke:none;" d="M260 365L261 366L260 365z"/>
<path style="fill:#f6b088; stroke:none;" d="M405 365L406 366L405 365M434 365L435 366L434 365z"/>
<path style="fill:#fec8a4; stroke:none;" d="M551 365L552 366L551 365z"/>
<path style="fill:#f6b088; stroke:none;" d="M631 365L632 366L631 365M836 365L837 366L836 365z"/>
<path style="fill:#afa3c6; stroke:none;" d="M947 365L948 366L947 365z"/>
<path style="fill:#f6b088; stroke:none;" d="M1052 365L1052 368L1053 368L1052 365z"/>
<path style="fill:#fec8a4; stroke:none;" d="M1115 365L1116 366L1115 365M1169.67 365.333L1170.33 365.667L1169.67 365.333M33 366L34 367L33 366M101 366L102 367L101 366z"/>
<path style="fill:#afa3c6; stroke:none;" d="M235.333 366.667L235.667 367.333L235.333 366.667z"/>
<path style="fill:#f6b088; stroke:none;" d="M435 366L436 367L435 366z"/>
<path style="fill:#fec8a4; stroke:none;" d="M525 366L526 367L525 366z"/>
<path style="fill:#f6b088; stroke:none;" d="M886 366L887 367L886 366z"/>
<path style="fill:#fec8a4; stroke:none;" d="M1116 366L1117 367L1116 366z"/>
<path style="fill:#f6b088; stroke:none;" d="M329.333 367.667L329.667 368.333L329.333 367.667M525 367L526 368L525 367M1026 367L1027 368L1026 367z"/>
<path style="fill:#fec8a4; stroke:none;" d="M1086 367L1087 368L1086 367z"/>
<path style="fill:#f6b088; stroke:none;" d="M1117 367L1118 368L1117 367M436 368L437 369L436 368M633 368L634 369L633 368z"/>
<path style="fill:#afa3c6; stroke:none;" d="M687 368L688 369L687 368z"/>
<path style="fill:#f6b088; stroke:none;" d="M838 368L839 369L838 368z"/>
<path style="fill:#afa3c6; stroke:none;" d="M1164 368L1165 369L1164 368z"/>
<path style="fill:#f6b088; stroke:none;" d="M34 369L35 370L34 369z"/>
<path style="fill:#fec8a4; stroke:none;" d="M100 369L101 370L100 369z"/>
<path style="fill:#f6b088; stroke:none;" d="M259.333 369.667L259.667 370.333L259.333 369.667z"/>
<path style="fill:#fec8a4; stroke:none;" d="M304 369L305 370L304 369M329 369L330 370L329 369M406 369L407 370L406 369M437 369L438 370L437 369z"/>
<path style="fill:#f6b088; stroke:none;" d="M551.333 369.667L551.667 370.333L551.333 369.667M604 369L605 370L604 369M634 369L635 370L634 369z"/>
<path style="fill:#fec8a4; stroke:none;" d="M689.333 369.667L689.667 370.333L689.333 369.667z"/>
<path style="fill:#f6b088; stroke:none;" d="M810 369L811 370L810 369M971.333 369.667L971.667 370.333L971.333 369.667M1087 369L1088 370L1087 369z"/>
<path style="fill:#fec8a4; stroke:none;" d="M1162 369L1163 370L1162 369z"/>
<path style="fill:#f6b088; stroke:none;" d="M234.333 370.667L234.667 371.333L234.333 370.667z"/>
<path style="fill:#afa3c6; stroke:none;" d="M304 370L305 371L304 370z"/>
<path style="fill:#fec8a4; stroke:none;" d="M438 370L439 371L438 370z"/>
<path style="fill:#f6b088; stroke:none;" d="M487 370L488 371L487 370z"/>
<path style="fill:#fec8a4; stroke:none;" d="M635 370L636 371L635 370M911 370L912 371L911 370M439 371L440 372L439 371z"/>
<path style="fill:#f6b088; stroke:none;" d="M636 371L637 372L636 371z"/>
<path style="fill:#fec8a4; stroke:none;" d="M682 371L683 372L682 371z"/>
<path style="fill:#f6b088; stroke:none;" d="M811 371L812 372L811 371M910 371L911 372L910 371M1051.33 371.667L1051.67 372.333L1051.33 371.667z"/>
<path style="fill:#afa3c6; stroke:none;" d="M1088 371L1089 372L1088 371z"/>
<path style="fill:#fec8a4; stroke:none;" d="M1123 371L1124 372L1123 371z"/>
<path style="fill:#f6b088; stroke:none;" d="M1158 371L1159 372L1158 371z"/>
<path style="fill:#fec8a4; stroke:none;" d="M35 372L36 373L35 372M99 372L100 373L99 372z"/>
<path style="fill:#f6b088; stroke:none;" d="M407 372L408 373L407 372M440 372L441 373L440 372M483 372L484 373L483 372z"/>
<path style="fill:#fec8a4; stroke:none;" d="M552 372L553 373L552 372M638 372L639 373L638 372M680 372L681 373L680 372M689 372L690 373L689 372M878 372L879 373L878 372M1025 372L1026 373L1025 372M1125 372L1126 373L1125 372M1155 372L1156 373L1155 372z"/>
<path style="fill:#f6b088; stroke:none;" d="M328.333 373.667L328.667 374.333L328.333 373.667M525 373L526 374L525 373M552 373L553 374L552 373M843 373L844 374L843 373M876 373L877 374L876 373z"/>
<path style="fill:#fec8a4; stroke:none;" d="M1051 373L1052 374L1051 373z"/>
<path style="fill:#f6b088; stroke:none;" d="M1152 373L1153 374L1152 373z"/>
<path style="fill:#fec8a4; stroke:none;" d="M408 374L409 375L408 374M479 374L480 375L479 374M525 374L526 375L525 374M641 374L642 375L641 374z"/>
<path style="fill:#f6b088; stroke:none;" d="M676 374L677 375L676 374z"/>
<path style="fill:#fec8a4; stroke:none;" d="M845 374L846 375L845 374z"/>
<path style="fill:#f6b088; stroke:none;" d="M874 374L875 375L874 374M1133 374L1134 375L1133 374z"/>
<path style="fill:#fec8a4; stroke:none;" d="M1148 374L1149 375L1148 374z"/>
<path style="fill:#f6b088; stroke:none;" d="M258 375L259 376L258 375z"/>
<path style="fill:#fec8a4; stroke:none;" d="M328 375L329 376L328 375z"/>
<path style="fill:#f6b088; stroke:none;" d="M444 375L445 376L444 375z"/>
<path style="fill:#afa3c6; stroke:none;" d="M477 375L478 376L477 375z"/>
<path style="fill:#f6b088; stroke:none;" d="M491.333 375.667L491.667 376.333L491.333 375.667z"/>
<path style="fill:#fec8a4; stroke:none;" d="M553 375L554 376L553 375M674 375L675 376L674 375z"/>
<path style="fill:#f6b088; stroke:none;" d="M872 375L873 376L872 375M945 375L946 376L945 375M970 375L971 376L970 375z"/>
<path style="fill:#fec8a4; stroke:none;" d="M258 376L259 377L258 376z"/>
<path style="fill:#f6b088; stroke:none;" d="M446 376L447 377L446 376z"/>
<path style="fill:#fec8a4; stroke:none;" d="M473 376L474 377L473 376M554 376L555 377L554 376z"/>
<path style="fill:#f6b088; stroke:none;" d="M607 376L608 377L607 376M646 376L647 377L646 376M670.667 376.333L671.333 376.667L670.667 376.333M850 376L851 377L850 376z"/>
<path style="fill:#fec8a4; stroke:none;" d="M851 376L852 377L851 376M868.667 376.333L869.333 376.667L868.667 376.333M970 376L971 377L970 376z"/>
<path style="fill:#f6b088; stroke:none;" d="M1170.33 376.667L1170.67 377.333L1170.33 376.667z"/>
<path style="fill:#fec8a4; stroke:none;" d="M38 377L39 378L38 377M96 377L97 378L96 377z"/>
<path style="fill:#f6b088; stroke:none;" d="M233 377L234 378L233 377z"/>
<path style="fill:#fec8a4; stroke:none;" d="M448 377L449 378L448 377z"/>
<path style="fill:#f6b088; stroke:none;" d="M470 377L471 378L470 377z"/>
<path style="fill:#fec8a4; stroke:none;" d="M491 377L492 378L491 377z"/>
<path style="fill:#f6b088; stroke:none;" d="M650 377L651 378L650 377M667 377L668 378L667 377M688.333 377.667L688.667 378.333L688.333 377.667M855 377L856 378L855 377z"/>
<path style="fill:#fec8a4; stroke:none;" d="M856 377L856 378L860 378L856 377M861 377L862 378L861 377z"/>
<path style="fill:#f6b088; stroke:none;" d="M862.667 377.333L863.333 377.667L862.667 377.333M1050 377L1051 378L1050 377z"/>
<path style="fill:#fec8a4; stroke:none;" d="M39 378L40 379L39 378M95 378L96 379L95 378z"/>
<path style="fill:#f6b088; stroke:none;" d="M327 378L328 379L327 378M410 378L411 379L410 378z"/>
<path style="fill:#fec8a4; stroke:none;" d="M452 378L453 379L452 378M464 378L465 379L464 378z"/>
<path style="fill:#f6b088; stroke:none;" d="M491.333 378.667L491.667 379.333L491.333 378.667z"/>
<path style="fill:#fec8a4; stroke:none;" d="M608 378L609 379L608 378M904 378L905 379L904 378M1050 378L1051 379L1050 378z"/>
<path style="fill:#f6b088; stroke:none;" d="M1092 378L1093 379L1092 378z"/>
<path style="fill:#fec8a4; stroke:none;" d="M1170 378L1171 379L1170 378M40 379L41 380L40 379M94 379L95 380L94 379z"/>
<path style="fill:#f6b088; stroke:none;" d="M257.333 379.667L257.667 380.333L257.333 379.667M526 379L527 380L526 379z"/>
<path style="fill:#fec8a4; stroke:none;" d="M557 379L558 380L557 379M688.333 379.667L688.667 380.333L688.333 379.667z"/>
<path style="fill:#f6b088; stroke:none;" d="M815 379L816 380L815 379z"/>
<path style="fill:#fec8a4; stroke:none;" d="M903 379L904 380L903 379M491 380L492 381L491 380z"/>
<path style="fill:#f6b088; stroke:none;" d="M560.667 380.333L561.333 380.667L560.667 380.333M969.333 380.667L969.667 381.333L969.333 380.667z"/>
<path style="fill:#fec8a4; stroke:none;" d="M42 381L43 382L42 381M92 381L93 382L92 381M95.3333 381.667L95.6667 382.333L95.3333 381.667M302 381L303 382L302 381z"/>
<path style="fill:#f6b088; stroke:none;" d="M412 381L413 382L412 381M566 381L567 382L566 381z"/>
<path style="fill:#fec8a4; stroke:none;" d="M944 381L945 382L944 381M43 382L44 383L43 382M91 382L92 383L91 382z"/>
<path style="fill:#afa3c6; stroke:none;" d="M232 382L233 383L232 382M302 382L303 383L302 382z"/>
<path style="fill:#f6b088; stroke:none;" d="M527 382L528 383L527 382z"/>
<path style="fill:#fec8a4; stroke:none;" d="M611 382L612 383L611 382M969 382L970 383L969 382z"/>
<path style="fill:#f6b088; stroke:none;" d="M1049.33 382.667L1049.67 383.333L1049.33 382.667z"/>
<path style="fill:#fec8a4; stroke:none;" d="M44 383L45 384L44 383M90 383L91 384L90 383M568 383L568 386L569 386L568 383z"/>
<path style="fill:#f6b088; stroke:none;" d="M898 383L899 384L898 383z"/>
<path style="fill:#fec8a4; stroke:none;" d="M1096 383L1097 384L1096 383z"/>
<path style="fill:#f6b088; stroke:none;" d="M326 384L327 385L326 384z"/>
<path style="fill:#afa3c6; stroke:none;" d="M528 384L529 385L528 384z"/>
<path style="fill:#fec8a4; stroke:none;" d="M819 384L820 385L819 384z"/>
<path style="fill:#f6b088; stroke:none;" d="M897 384L898 385L897 384z"/>
<path style="fill:#fec8a4; stroke:none;" d="M1097 384L1098 385L1097 384z"/>
<path style="fill:#f6b088; stroke:none;" d="M1169 384L1169 387L1170 387L1169 384z"/>
<path style="fill:#fec8a4; stroke:none;" d="M47 385L48 386L47 385M87 385L88 386L87 385M326 385L327 386L326 385M415 385L416 386L415 385z"/>
<path style="fill:#f6b088; stroke:none;" d="M490 385L491 386L490 385M820 385L821 386L820 385M49 386L50 387L49 386M85 386L86 387L85 386z"/>
<path style="fill:#fec8a4; stroke:none;" d="M301 386L302 387L301 386M490 386L491 387L490 386M529 386L530 387L529 386z"/>
<path style="fill:#f6b088; stroke:none;" d="M821 386L822 387L821 386M894 386L895 387L894 386M943.333 386.667L943.667 387.333L943.333 386.667M968 386L969 387L968 386z"/>
<path style="fill:#fec8a4; stroke:none;" d="M231 387L232 388L231 387z"/>
<path style="fill:#f6b088; stroke:none;" d="M256 387L257 388L256 387z"/>
<path style="fill:#afa3c6; stroke:none;" d="M301 387L302 388L301 387z"/>
<path style="fill:#fec8a4; stroke:none;" d="M417 387L418 388L417 387M822 387L823 388L822 387M968 387L969 388L968 387z"/>
<path style="fill:#f6b088; stroke:none;" d="M1101 387L1102 388L1101 387z"/>
<path style="fill:#fec8a4; stroke:none;" d="M1169 387L1170 388L1169 387M53 388L54 389L53 388M81 388L82 389L81 388M418 388L419 389L418 388z"/>
<path style="fill:#f6b088; stroke:none;" d="M687 388L688 389L687 388M891 388L892 389L891 388M1048 388L1049 389L1048 388M1102 388L1103 389L1102 388z"/>
<path style="fill:#fec8a4; stroke:none;" d="M56 389L57 390L56 389M78 389L79 390L78 389M687.333 389.667L687.667 390.333L687.333 389.667z"/>
<path style="fill:#f6b088; stroke:none;" d="M825 389L826 390L825 389z"/>
<path style="fill:#fec8a4; stroke:none;" d="M1022 389L1023 390L1022 389M1048 389L1049 390L1048 389z"/>
<path style="fill:#f6b088; stroke:none;" d="M1104 389L1105 390L1104 389z"/>
<path style="fill:#fec8a4; stroke:none;" d="M60 390L61 391L60 390M74 390L75 391L74 390z"/>
<path style="fill:#f6b088; stroke:none;" d="M325.333 390.667L325.667 391.333L325.333 390.667z"/>
<path style="fill:#fec8a4; stroke:none;" d="M420 390L421 391L420 390z"/>
<path style="fill:#f6b088; stroke:none;" d="M567 390L568 391L567 390z"/>
<path style="fill:#fec8a4; stroke:none;" d="M619 390L620 391L619 390z"/>
<path style="fill:#f6b088; stroke:none;" d="M888 390L889 391L888 390M1165 390L1166 391L1165 390M828 391L829 392L828 391M886 391L887 392L886 391M967 391L968 392L967 391z"/>
<path style="fill:#fec8a4; stroke:none;" d="M1162 391L1163 392L1162 391z"/>
<path style="fill:#f6b088; stroke:none;" d="M255 392L256 393L255 392z"/>
<path style="fill:#fec8a4; stroke:none;" d="M300 392L301 393L300 392M325 392L326 393L325 392z"/>
<path style="fill:#f6b088; stroke:none;" d="M423 392L424 393L423 392M535 392L536 393L535 392M830 392L831 393L830 392M884 392L885 393L884 392z"/>
<path style="fill:#fec8a4; stroke:none;" d="M942.333 392.667L942.667 393.333L942.333 392.667M1109 392L1110 393L1109 392z"/>
<path style="fill:#f6b088; stroke:none;" d="M1110 392L1111 393L1110 392z"/>
<path style="fill:#fec8a4; stroke:none;" d="M230 393L231 394L230 393z"/>
<path style="fill:#afa3c6; stroke:none;" d="M300 393L301 394L300 393z"/>
<path style="fill:#fec8a4; stroke:none;" d="M488 393L489 394L488 393M536 393L537 394L536 393z"/>
<path style="fill:#f6b088; stroke:none;" d="M683 393L684 394L683 393z"/>
<path style="fill:#fec8a4; stroke:none;" d="M881 393L882 394L881 393M1047 393L1048 394L1047 393M1112 393L1113 394L1112 393z"/>
<path style="fill:#afa3c6; stroke:none;" d="M230 394L231 395L230 394z"/>
<path style="fill:#f6b088; stroke:none;" d="M426 394L427 395L426 394z"/>
<path style="fill:#fec8a4; stroke:none;" d="M486 394L487 395L486 394z"/>
<path style="fill:#f6b088; stroke:none;" d="M538 394L539 395L538 394M680 394L681 395L680 394z"/>
<path style="fill:#fec8a4; stroke:none;" d="M681 394L682 395L681 394z"/>
<path style="fill:#f6b088; stroke:none;" d="M834 394L835 395L834 394M879 394L880 395L879 394z"/>
<path style="fill:#fec8a4; stroke:none;" d="M943 394L944 395L943 394z"/>
<path style="fill:#f6b088; stroke:none;" d="M1024 394L1024 395L1046 395L1024 394z"/>
<path style="fill:#fec8a4; stroke:none;" d="M1115 394L1116 395L1115 394z"/>
<path style="fill:#f6b088; stroke:none;" d="M1116 394L1117 395L1116 394M1150 394L1151 395L1150 394M324.333 395.667L324.667 396.333L324.333 395.667M428 395L429 396L428 395M540 395L541 396L540 395z"/>
<path style="fill:#fec8a4; stroke:none;" d="M566 395L567 396L566 395z"/>
<path style="fill:#f6b088; stroke:none;" d="M628 395L629 396L628 395z"/>
<path style="fill:#fec8a4; stroke:none;" d="M676 395L677 396L676 395z"/>
<path style="fill:#f6b088; stroke:none;" d="M837 395L838 396L837 395z"/>
<path style="fill:#fec8a4; stroke:none;" d="M875.667 395.333L876.333 395.667L875.667 395.333M1121 395L1122 396L1121 395z"/>
<path style="fill:#f6b088; stroke:none;" d="M1142 395L1143 396L1142 395z"/>
<path style="fill:#fec8a4; stroke:none;" d="M1143 395L1144 396L1143 395z"/>
<path style="fill:#f6b088; stroke:none;" d="M430 396L431 397L430 396M480 396L481 397L480 396M542 396L543 397L542 396M566 396L567 397L566 396M630.667 396.333L631.333 396.667L630.667 396.333M673 396L674 397L673 396M840 396L841 397L840 396z"/>
<path style="fill:#fec8a4; stroke:none;" d="M872 396L873 397L872 396z"/>
<path style="fill:#f6b088; stroke:none;" d="M1131 396L1131 397L1136 397L1131 396z"/>
<path style="fill:#fec8a4; stroke:none;" d="M1136 396L1136 397L1139 397L1136 396z"/>
<path style="fill:#f6b088; stroke:none;" d="M433 397L434 398L433 397z"/>
<path style="fill:#fec8a4; stroke:none;" d="M476 397L477 398L476 397z"/>
<path style="fill:#f6b088; stroke:none;" d="M545 397L546 398L545 397z"/>
<path style="fill:#fec8a4; stroke:none;" d="M635 397L636 398L635 397M667 397L668 398L667 397M844.667 397.333L845.333 397.667L844.667 397.333z"/>
<path style="fill:#f6b088; stroke:none;" d="M846.667 397.333L847.333 397.667L846.667 397.333z"/>
<path style="fill:#afa3c6; stroke:none;" d="M863 397L864 398L863 397z"/>
<path style="fill:#f6b088; stroke:none;" d="M864.667 397.333L865.333 397.667L864.667 397.333z"/>
<path style="fill:#fec8a4; stroke:none;" d="M866 397L867 398L866 397z"/>
<path style="fill:#afa3c6; stroke:none;" d="M230 398L231 399L230 398M253 398L254 399L253 398z"/>
<path style="fill:#fec8a4; stroke:none;" d="M300 398L301 399L300 398M323 398L324 399L323 398z"/>
<path style="fill:#f6b088; stroke:none;" d="M436 398L437 399L436 398M472.667 398.333L473.333 398.667L472.667 398.333z"/>
<path style="fill:#fec8a4; stroke:none;" d="M548 398L549 399L548 398z"/>
<path style="fill:#f6b088; stroke:none;" d="M549 398L550 399L549 398M661 398L661 399L664 399L661 398z"/>
<path style="fill:#fec8a4; stroke:none;" d="M441 399L442 400L441 399z"/>
<path style="fill:#afa3c6; stroke:none;" d="M465 399L466 400L465 399z"/>
<path style="fill:#fec8a4; stroke:none;" d="M466 399L467 400L466 399z"/>
<path style="fill:#f6b088; stroke:none;" d="M556 399L556 400L565 400L556 399M448 400L448 401L458 401L448 400z"/>
<path style="fill:#fec8a4; stroke:none;" d="M458 400L459 401L458 400M55 404L56 405L55 404z"/>
<path style="fill:#fe6703; stroke:none;" d="M56 404.465C9.32071 412.881 23.5702 480.726 69 472.535C115.679 464.119 101.43 396.274 56 404.465z"/>
<path style="fill:#fec8a4; stroke:none;" d="M69 404L70 405L69 404M51 405L52 406L51 405M73 405L74 406L73 405M48 406L49 407L48 406M76 406L77 407L76 406z"/>
<path style="fill:#f6b088; stroke:none;" d="M46 407L47 408L46 407M78 407L79 408L78 407M44 408L45 409L44 408M80 408L81 409L80 408z"/>
<path style="fill:#fec8a4; stroke:none;" d="M42 409L43 410L42 409M82 409L83 410L82 409M39 411L40 412L39 411M85 411L86 412L85 411M38 412L39 413L38 412M86 412L87 413L86 412M33 417L34 418L33 417z"/>
<path style="fill:#f6b088; stroke:none;" d="M91 417L92 418L91 417z"/>
<path style="fill:#fec8a4; stroke:none;" d="M32 418L33 419L32 418M92 418L93 419L92 418M629 418L630 419L629 418z"/>
<path style="fill:#afa3c6; stroke:none;" d="M630 418L631 419L630 418z"/>
<path style="fill:#fec8a4; stroke:none;" d="M30 421L31 422L30 421M94 421L95 422L94 421M29 423L30 424L29 423M95 423L96 424L95 423M28 425L29 426L28 425M96 425L97 426L96 425M27 428L28 429L27 428z"/>
<path style="fill:#f6b088; stroke:none;" d="M97 428L98 429L97 428z"/>
<path style="fill:#fec8a4; stroke:none;" d="M26 431L27 432L26 431M98 431L99 432L98 431z"/>
<path style="fill:#f6b088; stroke:none;" d="M26 432L27 433L26 432M98 432L99 433L98 432z"/>
<path style="fill:#fec8a4; stroke:none;" d="M442 432L443 433L442 432z"/>
<path style="fill:#fe6703; stroke:none;" d="M443.015 432.668C432.637 435.709 438.014 450.253 447.985 447.332C458.363 444.291 452.986 429.747 443.015 432.668z"/>
<path style="fill:#fec8a4; stroke:none;" d="M448 432L449 433L448 432M440 433L441 434L440 433M450 433L451 434L450 433M26.3333 444.667L26.6667 445.333L26.3333 444.667M98.3333 444.667L98.6667 445.333L98.3333 444.667z"/>
<path style="fill:#f6b088; stroke:none;" d="M440 446L441 447L440 446z"/>
<path style="fill:#fec8a4; stroke:none;" d="M450 446L451 447L450 446z"/>
<path style="fill:#fe6703; stroke:none;" d="M418.015 447.743C406.862 452.081 414.605 467.294 424.985 463.257C436.138 458.919 428.395 443.706 418.015 447.743z"/>
<path style="fill:#f6b088; stroke:none;" d="M442 447L443 448L442 447z"/>
<path style="fill:#fec8a4; stroke:none;" d="M448 447L449 448L448 447M27 448L28 449L27 448M97 448L98 449L97 448M414 449L415 450L414 449M428 449L429 450L428 449M413 450L414 451L413 450M429 450L430 451L429 450M28 451L29 452L28 451M96 451L97 452L96 451M412 452L413 453L412 452M430 452L431 453L430 452M29 453L30 454L29 453M95 453L96 454L95 453M30 455L31 456L30 455M94 455L95 456L94 455M32 458L33 459L32 458M92 458L93 459L92 458M412 458L413 459L412 458M430 458L431 459L430 458M33 459L34 460L33 459M91 459L92 460L91 459M413 460L414 461L413 460M429 460L430 461L429 460M388 461L389 462L388 461z"/>
<path style="fill:#fe6703; stroke:none;" d="M389 461.653C373.01 466.649 381.84 489.084 397 484.347C412.99 479.351 404.16 456.915 389 461.653z"/>
<path style="fill:#fec8a4; stroke:none;" d="M397 461L398 462L397 461M414 461L415 462L414 461M428 461L429 462L428 461M386 462L387 463L386 462M399 462L400 463L399 462M38 464L39 465L38 464M86 464L87 465L86 464M383 464L384 465L383 464M402 464L403 465L402 464M39 465L40 466L39 465M85 465L86 466L85 465M382 465L383 466L382 465M403 465L404 466L403 465M42 467L43 468L42 467M82 467L83 468L82 467z"/>
<path style="fill:#f6b088; stroke:none;" d="M44 468L45 469L44 468M80 468L81 469L80 468z"/>
<path style="fill:#afa3c6; stroke:none;" d="M1213 468L1214 469L1213 468z"/>
<path style="fill:#fec8a4; stroke:none;" d="M1214 468L1215 469L1214 468z"/>
<path style="fill:#f6b088; stroke:none;" d="M46 469L47 470L46 469M78 469L79 470L78 469z"/>
<path style="fill:#fec8a4; stroke:none;" d="M380 469L381 470L380 469M405 469L406 470L405 469M48 470L49 471L48 470z"/>
<path style="fill:#f6b088; stroke:none;" d="M76 470L77 471L76 470z"/>
<path style="fill:#fec8a4; stroke:none;" d="M50 471L51 472L50 471z"/>
<path style="fill:#f6b088; stroke:none;" d="M51 471L52 472L51 471z"/>
<path style="fill:#fec8a4; stroke:none;" d="M73 471L74 472L73 471M55 472L56 473L55 472M69 472L70 473L69 472M380 476L381 477L380 476M405 476L406 477L405 476M354 479L355 480L354 479z"/>
<path style="fill:#fe6703; stroke:none;" d="M355 479.532C334.819 484.31 343.809 512.01 363 507.468C383.181 502.69 374.191 474.99 355 479.532z"/>
<path style="fill:#fec8a4; stroke:none;" d="M363 479L364 480L363 479M351 480L352 481L351 480M366 480L367 481L366 480M382 480L383 481L382 480M403 480L404 481L403 480M86 481L87 482L86 481z"/>
<path style="fill:#fe6703; stroke:none;" d="M87 481.465C82.0607 482.353 77.1997 484.135 73.0039 486.901C42.2203 507.196 68.1915 547.26 100 541.536C104.939 540.647 109.8 538.865 113.996 536.099C144.78 515.804 118.809 475.74 87 481.465z"/>
<path style="fill:#fec8a4; stroke:none;" d="M100 481L101 482L100 481M349 481L350 482L349 481M368 481L369 482L368 481M383 481L384 482L383 481M402 481L403 482L402 481M82 482L83 483L82 482M104 482L105 483L104 482M348 482L349 483L348 482M369 482L370 483L369 482M79 483L80 484L79 483M107 483L108 484L107 483M386 483L387 484L386 483M399 483L400 484L399 483M388 484L389 485L388 484M397 484L398 485L397 484z"/>
<path style="fill:#f6b088; stroke:none;" d="M75 485L76 486L75 485M111 485L112 486L111 485z"/>
<path style="fill:#fec8a4; stroke:none;" d="M345 485L346 486L345 485M372 485L373 486L372 485M73 486L74 487L73 486M113 486L114 487L113 486M70 488L71 489L70 488M116 488L117 489L116 488M69 489L70 490L69 489M117 489L118 490L117 489M343 489L344 490L343 489M374 489L375 490L374 489M68 490L69 491L68 490M118 490L119 491L118 490M66 492L67 493L66 492M120 492L121 493L120 492M65 493L66 494L65 493M121 493L122 494L121 493M64 494L65 495L64 494M122 494L123 495L122 494M343 497L344 498L343 497M374 497L375 498L374 497M313 498L314 499L313 498z"/>
<path style="fill:#fe6703; stroke:none;" d="M314 498.533C292.084 503.818 301.71 535.601 323 530.467C344.916 525.182 335.29 493.399 314 498.533z"/>
<path style="fill:#fec8a4; stroke:none;" d="M323 498L324 499L323 498M61 499L62 500L61 499M125 499L126 500L125 499M307 501L308 502L307 501M329 501L330 502L329 501M345 501L346 502L345 501M372 501L373 502L372 501M60 502L61 503L60 502z"/>
<path style="fill:#f6b088; stroke:none;" d="M126 502L127 503L126 502M306 502L307 503L306 502M330 502L331 503L330 502z"/>
<path style="fill:#fec8a4; stroke:none;" d="M304 504L305 505L304 504M332 504L333 505L332 504M348 504L349 505L348 504M369 504L370 505L369 504M59 505L60 506L59 505M127 505L128 506L127 505M303 505L304 506L303 505M333 505L334 506L333 505M349 505L350 506L349 505M368 505L369 506L368 505M351 506L352 507L351 506M366 506L367 507L366 506M302 507L303 508L302 507M334 507L335 508L334 507M354 507L355 508L354 507z"/>
<path style="fill:#f6b088; stroke:none;" d="M363 507L364 508L363 507z"/>
<path style="fill:#fec8a4; stroke:none;" d="M301.333 509.667L301.667 510.333L301.333 509.667M335.333 509.667L335.667 510.333L335.333 509.667M59 517L60 518L59 517M127 517L128 518L127 517M263 517L264 518L263 517z"/>
<path style="fill:#f6b088; stroke:none;" d="M264 517L265 518L264 517z"/>
<path style="fill:#fe6703; stroke:none;" d="M265 517.468C239.482 522.333 247.858 560.325 273 555.532C298.518 550.667 290.142 512.675 265 517.468z"/>
<path style="fill:#f6b088; stroke:none;" d="M273 517L274 518L273 517z"/>
<path style="fill:#fec8a4; stroke:none;" d="M274 517L275 518L274 517z"/>
<path style="fill:#f6b088; stroke:none;" d="M301 518L302 519L301 518M335 518L336 519L335 518z"/>
<path style="fill:#fec8a4; stroke:none;" d="M301 519L302 520L301 519M335 519L336 520L335 519M60 520L61 521L60 520M126 520L127 521L126 520M257 520L258 521L257 520M280 520L281 521L280 520M302 521L303 522L302 521M334 521L335 522L334 521M61 523L62 524L61 523M125 523L126 524L125 523M303 523L304 524L303 523M333 523L334 524L333 523M304 524L305 525L304 524M332 524L333 525L332 524M251 526L252 527L251 526M286 526L287 527L286 526z"/>
<path style="fill:#f6b088; stroke:none;" d="M306 526L307 527L306 526M330 526L331 527L330 526z"/>
<path style="fill:#fec8a4; stroke:none;" d="M142 527L143 528L142 527z"/>
<path style="fill:#fe6703; stroke:none;" d="M143 527.518C109.307 534.717 120.846 585.566 154 578.482C187.693 571.283 176.154 520.434 143 527.518z"/>
<path style="fill:#fec8a4; stroke:none;" d="M154 527L155 528L154 527M307 527L308 528L307 527M329 527L330 528L329 527M64 528L65 529L64 528M122 528L123 529L122 528M139 528L140 529L139 528M157 528L158 529L157 528M207 528L208 529L207 528z"/>
<path style="fill:#fe6703; stroke:none;" d="M208 528.518C179.469 534.697 188.468 579.66 217 573.482C245.531 567.303 236.532 522.34 208 528.518z"/>
<path style="fill:#fec8a4; stroke:none;" d="M217 528L218 529L217 528M250 528L251 529L250 528M287 528L288 529L287 528M65 529L66 530L65 529M121 529L122 530L121 529M204 529L205 530L204 529M220 529L221 530L220 529M373.667 529.333L374.333 529.667L373.667 529.333M66 530L67 531L66 530M120 530L121 531L120 530M313 530L314 531L313 530M323 530L324 531L323 530z"/>
<path style="fill:#afa3c6; stroke:none;" d="M373.667 530.333L374.333 530.667L373.667 530.333z"/>
<path style="fill:#fec8a4; stroke:none;" d="M133 531L134 532L133 531M163 531L164 532L163 531M200 531L201 532L200 531M224 531L225 532L224 531M249 531L250 532L249 531M288 531L289 532L288 531M373 531L374 532L373 531M68 532L69 533L68 532M118 532L119 533L118 532M69 533L70 534L69 533M117 533L118 534L117 533M130 533L131 534L130 533M166 533L167 534L166 533M197 533L198 534L197 533M227 533L228 534L227 533M70 534L71 535L70 534M116 534L117 535L116 534M129 534L130 535L129 534M167 534L168 535L167 534M196 534L197 535L196 534M228 534L229 535L228 534M128 535L129 536L128 535M195 535L196 536L195 535M229 535L230 536L229 535M73 536L74 537L73 536M113 536L114 537L113 536z"/>
<path style="fill:#f6b088; stroke:none;" d="M75 537L76 538L75 537M111 537L112 538L111 537M126 538L127 539L126 538M170 538L171 539L170 538z"/>
<path style="fill:#fec8a4; stroke:none;" d="M193 538L194 539L193 538M231 538L232 539L231 538M79 539L80 540L79 539M107 539L108 540L107 539M82 540L83 541L82 540M104 540L105 541L104 540M86 541L87 542L86 541M100 541L101 542L100 541M124 541L125 542L124 541M172 541L173 542L172 541M249 541L250 542L249 541M288 541L289 542L288 541M191 542L192 543L191 542M233 542L234 543L233 542M250 544L251 545L250 544M287 544L288 545L287 544M190 545L191 546L190 545M234 545L235 546L234 545M251 546L252 547L251 546M286 546L287 547L286 546M122 547L123 548L122 547M174 547L175 548L174 547M257 552L258 553L257 552M280 552L281 553L280 552M263 555L264 556L263 555z"/>
<path style="fill:#f6b088; stroke:none;" d="M264 555L265 556L264 555M273 555L274 556L273 555z"/>
<path style="fill:#fec8a4; stroke:none;" d="M274 555L275 556L274 555M190 556L191 557L190 556M234 556L235 557L234 556M122 558L123 559L122 558M174 558L175 559L174 558M191 559L192 560L191 559M233 559L234 560L233 559M193 563L194 564L193 563M231 563L232 564L231 563M124 564L125 565L124 564M172 564L173 565L172 564M195 566L196 567L195 566M229 566L230 567L229 566z"/>
<path style="fill:#f6b088; stroke:none;" d="M126 567L127 568L126 567M170 567L171 568L170 567z"/>
<path style="fill:#fec8a4; stroke:none;" d="M196 567L197 568L196 567M228 567L229 568L228 567M197 568L198 569L197 568M227 568L228 569L227 568M128 570L129 571L128 570M168 570L169 571L168 570M200 570L201 571L200 570M224 570L225 571L224 570M129 571L130 572L129 571M167 571L168 572L167 571M130 572L131 573L130 572M166 572L167 573L166 572M204 572L205 573L204 572M220 572L221 573L220 572M207 573L208 574L207 573M217 573L218 574L217 573M133 574L134 575L133 574M163 574L164 575L163 574M139 577L140 578L139 577M157 577L158 578L157 577M142 578L143 579L142 578M154 578L155 579L154 578z"/>
</svg>
